<?xml version="1.0" encoding="UTF-8" standalone="no"?>
<!-- Created with Inkscape (http://www.inkscape.org/) -->

<svg
   xmlns:dc="http://purl.org/dc/elements/1.1/"
   xmlns:cc="http://creativecommons.org/ns#"
   xmlns:rdf="http://www.w3.org/1999/02/22-rdf-syntax-ns#"
   xmlns:svg="http://www.w3.org/2000/svg"
   xmlns="http://www.w3.org/2000/svg"
   xmlns:sodipodi="http://sodipodi.sourceforge.net/DTD/sodipodi-0.dtd"
   xmlns:inkscape="http://www.inkscape.org/namespaces/inkscape"
   id="svg2"
   version="1.1"
   inkscape:version="0.91 r13725"
   xml:space="preserve"
   width="600"
   height="600"
   viewBox="0 0 600 600"
   sodipodi:docname="planes.svg"><metadata
     id="metadata8"><rdf:RDF><cc:Work
         rdf:about=""><dc:format>image/svg+xml</dc:format><dc:type
           rdf:resource="http://purl.org/dc/dcmitype/StillImage" /><dc:title></dc:title></cc:Work></rdf:RDF></metadata><defs
     id="defs6"><clipPath
       clipPathUnits="userSpaceOnUse"
       id="clipPath18"><path
         d="m 12000,0 -1288.2,0 c 0.4,5.78125 0.7,11.582 0.9,17.4102 7.3,200.3008 -104.4,377.3008 -271.8,462.9298 l 849.1,0 0,6390.03 c -73.8,0 -147.5,0 -221.3,0 -198,0 -395.9,0 -593.8,0 -3138.33,0 -6276.61,0 -9414.9,0 l 0,0 c 0,-0.13 0,-0.24 0,-0.37 l -60,0 0,-1293.9 c -72,106.51 -188.832,181.64 -326.703,196.05 -15.91,1.67 -31.742,2.48 -47.395,2.48 -16.203,0 -32.246,-0.87 -48.07,-2.57 C 448.738,5979.34 243.625,6135.28 0,6199.62 L 0,7500 l 12000,0 0,-7500 M 9928.58,445.5 c -13.23,11.98 -26.78,23.59 -40.65,34.84 l 98.67,0 c -20.16,-10.32 -39.54,-21.969 -58.02,-34.84"
         id="path20"
         inkscape:connector-curvature="0" /></clipPath><linearGradient
       x1="0"
       y1="0"
       x2="1"
       y2="0"
       gradientUnits="userSpaceOnUse"
       gradientTransform="matrix(2386.14,10413.8,10413.8,-2386.14,5648.38,2215.44)"
       spreadMethod="pad"
       id="linearGradient22"><stop
         style="stop-opacity:1;stop-color:#001c4e"
         offset="0"
         id="stop24" /><stop
         style="stop-opacity:1;stop-color:#cbcae5"
         offset="0.998698"
         id="stop26" /><stop
         style="stop-opacity:1;stop-color:#cbcae5"
         offset="1"
         id="stop28" /></linearGradient><clipPath
       clipPathUnits="userSpaceOnUse"
       id="clipPath36"><path
         d="m 8510.59,326.73 c -87.31,66.75 -186.31,119.211 -293.63,153.61 l 445.4,0 c -56.02,-45.41 -106.97,-96.938 -151.77,-153.61 m -3054.16,82.219 c -2.5,24.621 -7.58,48.512 -14.99,71.391 l 429.12,0 c -1.9,-5.961 -3.68,-11.969 -5.35,-18.031 -18.32,6.461 -37.61,11.082 -57.69,13.613 -11.76,1.476 -23.45,2.199 -35,2.199 -51.93,0 -101.24,-14.551 -143.5,-40.191 -1.66,0.019 -3.32,0.019 -4.98,0.019 -57.54,0 -114.22,-10 -167.61,-29 M 4103.77,440.02 c -32.09,16.55 -65.99,30.121 -101.37,40.32 l 121.21,0 c -7.2,-13.09 -13.82,-26.539 -19.84,-40.32 m -427.3,35.949 c -0.47,1.461 -0.93,2.91 -1.41,4.371 l 15.84,0 c -4.84,-1.391 -9.65,-2.848 -14.43,-4.371 M 1000,4749.11 c -56.523,134 -163.723,242.02 -298.391,299.22 12.348,56.37 20.121,114.5 22.286,174.21 7.289,201.28 -47.032,390.51 -146.063,549.52 15.824,1.7 31.867,2.57 48.07,2.57 15.653,0 31.485,-0.81 47.395,-2.48 C 811.168,5757.74 928,5682.61 1000,5576.1 l 0,-126.55 0,-700.44"
         id="path38"
         inkscape:connector-curvature="0" /></clipPath><linearGradient
       x1="0"
       y1="0"
       x2="1"
       y2="0"
       gradientUnits="userSpaceOnUse"
       gradientTransform="matrix(2386.14,10413.8,10413.8,-2386.14,5648.38,2215.44)"
       spreadMethod="pad"
       id="linearGradient40"><stop
         style="stop-opacity:1;stop-color:#18315e"
         offset="0"
         id="stop42" /><stop
         style="stop-opacity:1;stop-color:#cdcce4"
         offset="0.998698"
         id="stop44" /><stop
         style="stop-opacity:1;stop-color:#cdcce4"
         offset="1"
         id="stop46" /></linearGradient><clipPath
       clipPathUnits="userSpaceOnUse"
       id="clipPath54"><path
         d="m 10711.8,0 -696.9,0 c -21.53,173.891 -81.96,337.391 -173.1,480.34 l 46.13,0 c 13.87,-11.25 27.42,-22.86 40.65,-34.84 18.48,12.871 37.86,24.52 58.02,34.84 l 454.3,0 C 10608.3,394.711 10720,217.711 10712.7,17.4102 10712.5,11.582 10712.2,5.78125 10711.8,0 M 0,5165.13 0,6199.62 c 243.625,-64.34 448.738,-220.28 577.832,-427.56 -206.781,-22.21 -377.172,-186.14 -399.664,-401.34 -5.48,-52.46 -1.645,-103.73 10.027,-152.26 L 0,5165.13"
         id="path56"
         inkscape:connector-curvature="0" /></clipPath><linearGradient
       x1="0"
       y1="0"
       x2="1"
       y2="0"
       gradientUnits="userSpaceOnUse"
       gradientTransform="matrix(2386.14,10413.8,10413.8,-2386.14,5648.38,2215.44)"
       spreadMethod="pad"
       id="linearGradient58"><stop
         style="stop-opacity:1;stop-color:#162f5c"
         offset="0"
         id="stop60" /><stop
         style="stop-opacity:1;stop-color:#cbcae2"
         offset="0.998698"
         id="stop62" /><stop
         style="stop-opacity:1;stop-color:#cbcae2"
         offset="1"
         id="stop64" /></linearGradient><clipPath
       clipPathUnits="userSpaceOnUse"
       id="clipPath72"><path
         d="M 10014.9,0 8193.25,0 c -157.07,192.512 -385.51,327.281 -651.49,360.719 -42.29,5.32 -84.27,7.89 -125.8,7.89 -26.94,0 -53.68,-1.078 -80.18,-3.199 -8.43,40.211 -21.93,78.781 -39.89,114.93 l 921.07,0 c 107.32,-34.399 206.32,-86.86 293.63,-153.61 44.8,56.672 95.75,108.2 151.77,153.61 l 1179.44,0 C 9932.94,337.391 9993.37,173.891 10014.9,0 M 5501.24,258.469 c -59.55,62.133 -139.95,105.043 -231.99,116.601 -16.44,2.071 -32.76,3.071 -48.9,3.071 -76.93,0 -149.76,-22.852 -211.14,-62.719 -40.5,67.18 -97.12,124.148 -165.28,164.918 l 597.51,0 c 7.41,-22.879 12.49,-46.77 14.99,-71.391 53.39,19 110.07,29 167.61,29 1.66,0 3.32,0 4.98,-0.019 -63.65,-38.617 -111.3,-102.391 -127.78,-179.461 m -1329.47,31.922 c -90.96,81.39 -206.63,136.988 -336.89,153.371 -26.29,3.308 -52.42,4.918 -78.25,4.918 -126.26,0 -245.6,-38.469 -345.42,-105.328 -19.99,55.707 -57.32,103.859 -106.33,136.988 l 370.18,0 c 0.48,-1.461 0.94,-2.91 1.41,-4.371 4.78,1.523 9.59,2.98 14.43,4.371 l 311.5,0 c 35.38,-10.199 69.28,-23.77 101.37,-40.32 6.02,13.781 12.64,27.23 19.84,40.32 l 227.85,0 C 4275.95,435.211 4213.27,369.719 4171.77,290.391 M 2891.3,351.5 c -44.89,54.09 -101.61,98.469 -166.85,128.84 l 270.31,0 C 2948.8,449.332 2912.24,404.742 2891.3,351.5 m 3090.33,31.691 c -30.9,35.27 -70.63,62.957 -116.42,79.118 1.67,6.062 3.45,12.07 5.35,18.031 l 251.76,0 c -50.55,-26.828 -97.77,-59.469 -140.69,-97.149 M 1000,3974.29 c -54.262,68.01 -126.633,121.63 -210.969,153.01 4.778,17.53 8.457,35.57 10.789,54.12 26.782,213.03 -124.199,407.43 -337.226,434.22 -16.449,2.07 -32.824,3.08 -48.981,3.08 -73.953,0 -144.121,-21.07 -203.972,-58.13 C 187.613,4729.97 112.684,4885.58 0,5007.49 l 0,157.64 188.195,53.33 c -11.672,48.53 -15.507,99.8 -10.027,152.26 22.492,215.2 192.883,379.13 399.664,401.34 99.031,-159.01 153.352,-348.24 146.063,-549.52 -2.165,-59.71 -9.938,-117.84 -22.286,-174.21 134.668,-57.2 241.868,-165.22 298.391,-299.22 l 0,-774.82"
         id="path74"
         inkscape:connector-curvature="0" /></clipPath><linearGradient
       x1="0"
       y1="0"
       x2="1"
       y2="0"
       gradientUnits="userSpaceOnUse"
       gradientTransform="matrix(2386.14,10413.8,10413.8,-2386.14,5648.38,2215.44)"
       spreadMethod="pad"
       id="linearGradient76"><stop
         style="stop-opacity:1;stop-color:#2c426a"
         offset="0"
         id="stop78" /><stop
         style="stop-opacity:1;stop-color:#cdcce1"
         offset="0.998698"
         id="stop80" /><stop
         style="stop-opacity:1;stop-color:#cdcce1"
         offset="1"
         id="stop82" /></linearGradient><clipPath
       clipPathUnits="userSpaceOnUse"
       id="clipPath90"><path
         d="m 5850.16,383.422 c -10.75,5.457 -21.67,10.687 -32.94,15.43 -61.54,25.859 -125.33,38.449 -188.2,39.078 42.26,25.64 91.57,40.191 143.5,40.191 11.55,0 23.24,-0.723 35,-2.199 20.08,-2.531 39.37,-7.152 57.69,-13.613 -7.04,-25.508 -12.11,-51.86 -15.05,-78.887"
         id="path92"
         inkscape:connector-curvature="0" /></clipPath><linearGradient
       x1="0"
       y1="0"
       x2="1"
       y2="0"
       gradientUnits="userSpaceOnUse"
       gradientTransform="matrix(2386.14,10413.8,10413.8,-2386.14,5648.38,2215.44)"
       spreadMethod="pad"
       id="linearGradient94"><stop
         style="stop-opacity:1;stop-color:#293f67"
         offset="0"
         id="stop96" /><stop
         style="stop-opacity:1;stop-color:#cac9df"
         offset="0.998698"
         id="stop98" /><stop
         style="stop-opacity:1;stop-color:#cac9df"
         offset="1"
         id="stop100" /></linearGradient><clipPath
       clipPathUnits="userSpaceOnUse"
       id="clipPath108"><path
         d="M 8193.25,0 5693.14,0 c -37.05,46.6484 -91.43,79.6094 -155.17,88.2383 -10.89,1.4805 -21.71,2.2031 -32.4,2.2031 -71.42,0 -137.2,-32.0312 -181.7,-83.91015 -64.6,82.57815 -160.15,141.07075 -272.25,156.24975 -18.95,2.571 -37.79,3.821 -56.39,3.821 -77.69,0 -151.56,-21.762 -214.96,-60.09 -63.12,66.707 -148.52,113.168 -246.6,126.449 -18.98,2.57 -37.85,3.82 -56.48,3.82 -161.89,0 -307.23,-94.359 -375.4,-236.781 l -359.81,0 c -18.05,124.25 -116.1,226.75 -246.73,244.441 -13.15,1.789 -26.22,2.649 -39.14,2.649 -64.65,0 -125.5,-21.711 -174.51,-59 -62.17,61.93 -144.3,104.859 -237.96,117.551 -18.97,2.57 -37.83,3.82 -56.46,3.82 -152.81,0 -290.88,-84.109 -363.24,-213.3204 -56.15,36.3514 -120.95,61.2694 -191.62,70.8394 -21.27,2.891 -42.4,4.282 -63.28,4.282 -33.11,0 -65.6,-3.512 -97.09,-10.192 -25.45,120.282 -83,230.332 -164.39,319.27 l 616.89,0 c 65.24,-30.371 121.96,-74.75 166.85,-128.84 20.94,53.242 57.5,97.832 103.46,128.84 l 310.12,0 c 49.01,-33.129 86.34,-81.281 106.33,-136.988 99.82,66.859 219.16,105.328 345.42,105.328 25.83,0 51.96,-1.61 78.25,-4.918 130.26,-16.383 245.93,-71.981 336.89,-153.371 41.5,79.328 104.18,144.82 179.69,189.949 l 492.47,0 c 68.16,-40.77 124.78,-97.738 165.28,-164.918 61.38,39.867 134.21,62.719 211.14,62.719 16.14,0 32.46,-1 48.9,-3.071 92.04,-11.558 172.44,-54.468 231.99,-116.601 16.48,77.07 64.13,140.844 127.78,179.461 62.87,-0.629 126.66,-13.219 188.2,-39.078 11.27,-4.743 22.19,-9.973 32.94,-15.43 2.94,27.027 8.01,53.379 15.05,78.887 45.79,-16.161 85.52,-43.848 116.42,-79.118 42.92,37.68 90.14,70.321 140.69,97.149 l 1173.57,0 c 17.96,-36.149 31.46,-74.719 39.89,-114.93 26.5,2.121 53.24,3.199 80.18,3.199 41.53,0 83.51,-2.57 125.8,-7.89 C 7807.74,327.281 8036.18,192.512 8193.25,0 M 1000,1069.11 c -28.5,13.75 -59.629,23.31 -92.687,27.79 -13.313,1.81 -26.516,2.63 -39.579,2.63 -11.586,0 -23.054,-0.65 -34.394,-1.85 -1.203,144.71 -77.742,275.79 -196.41,349.81 58.047,120.43 52.953,256.26 -3.512,368.43 33.922,25.85 57.992,64.63 64.172,110.23 10.41,76.83 -33.379,148.33 -101.91,176.45 51.25,44.41 87.347,106.72 97.168,179.2 14.316,105.66 -30.637,205.49 -109.114,266.61 66.684,63.11 113.121,148.49 126.407,246.56 22.007,162.38 -52.715,315.52 -179.856,401.48 39.586,36.48 67.195,86.44 74.988,143.96 17.77,131.17 -74.16,251.91 -205.332,269.69 -5.25,0.71 -10.449,0.96 -15.66,1.33 15.266,36.73 26.133,75.98 31.731,117.26 26.843,198.14 -74.309,384.02 -239.887,474.52 14.879,45.8 26.105,93.45 32.801,142.87 9.883,72.92 9.769,144.87 0.715,214.51 59.851,37.06 130.019,58.13 203.972,58.13 16.157,0 32.532,-1.01 48.981,-3.08 213.027,-26.79 364.008,-221.19 337.226,-434.22 -2.332,-18.55 -6.011,-36.59 -10.789,-54.12 84.336,-31.38 156.707,-85 210.969,-153.01 l 0,-2905.18"
         id="path110"
         inkscape:connector-curvature="0" /></clipPath><linearGradient
       x1="0"
       y1="0"
       x2="1"
       y2="0"
       gradientUnits="userSpaceOnUse"
       gradientTransform="matrix(2386.14,10413.8,10413.8,-2386.14,5648.38,2215.44)"
       spreadMethod="pad"
       id="linearGradient112"><stop
         style="stop-opacity:1;stop-color:#3b4f72"
         offset="0"
         id="stop114" /><stop
         style="stop-opacity:1;stop-color:#cac9dc"
         offset="0.998698"
         id="stop116" /><stop
         style="stop-opacity:1;stop-color:#cac9dc"
         offset="1"
         id="stop118" /></linearGradient><clipPath
       clipPathUnits="userSpaceOnUse"
       id="clipPath126"><path
         d="m 0,4137.99 0,869.5 c 112.684,-121.91 187.613,-277.52 209.641,-446.9 -96.438,-59.7 -166.016,-160.88 -181.266,-282.18 -5.6758,-45.14 -3.293,-89.42 5.8984,-131.48 L 0,4137.99"
         id="path128"
         inkscape:connector-curvature="0" /></clipPath><linearGradient
       x1="0"
       y1="0"
       x2="1"
       y2="0"
       gradientUnits="userSpaceOnUse"
       gradientTransform="matrix(2386.14,10413.8,10413.8,-2386.14,5648.38,2215.44)"
       spreadMethod="pad"
       id="linearGradient130"><stop
         style="stop-opacity:1;stop-color:#384b6f"
         offset="0"
         id="stop132" /><stop
         style="stop-opacity:1;stop-color:#c7c6d9"
         offset="0.998698"
         id="stop134" /><stop
         style="stop-opacity:1;stop-color:#c7c6d9"
         offset="1"
         id="stop136" /></linearGradient><clipPath
       clipPathUnits="userSpaceOnUse"
       id="clipPath144"><path
         d="M 375.945,0 0,0 0,370.23 375.945,0"
         id="path146"
         inkscape:connector-curvature="0" /></clipPath><linearGradient
       x1="0"
       y1="0"
       x2="1"
       y2="0"
       gradientUnits="userSpaceOnUse"
       gradientTransform="matrix(2386.14,10413.8,10413.8,-2386.14,5648.38,2215.44)"
       spreadMethod="pad"
       id="linearGradient148"><stop
         style="stop-opacity:1;stop-color:#35496c"
         offset="0"
         id="stop150" /><stop
         style="stop-opacity:1;stop-color:#c5c4d7"
         offset="0.998698"
         id="stop152" /><stop
         style="stop-opacity:1;stop-color:#c5c4d7"
         offset="1"
         id="stop154" /></linearGradient><clipPath
       clipPathUnits="userSpaceOnUse"
       id="clipPath162"><path
         d="M 5693.14,0 4101.79,0 c 68.17,142.422 213.51,236.781 375.4,236.781 18.63,0 37.5,-1.25 56.48,-3.82 98.08,-13.281 183.48,-59.742 246.6,-126.449 63.4,38.328 137.27,60.09 214.96,60.09 18.6,0 37.44,-1.25 56.39,-3.821 112.1,-15.179 207.65,-73.6716 272.25,-156.24975 44.5,51.87895 110.28,83.91015 181.7,83.91015 10.69,0 21.51,-0.7226 32.4,-2.2031 C 5601.71,79.6094 5656.09,46.6484 5693.14,0 M 3741.98,0 375.945,0 0,370.23 l 0,3767.76 34.2734,8.94 c -9.1914,42.06 -11.5742,86.34 -5.8984,131.48 15.25,121.3 84.828,222.48 181.266,282.18 9.054,-69.64 9.168,-141.59 -0.715,-214.51 -6.696,-49.42 -17.922,-97.07 -32.801,-142.87 165.578,-90.5 266.73,-276.38 239.887,-474.52 -5.598,-41.28 -16.465,-80.53 -31.731,-117.26 5.211,-0.37 10.41,-0.62 15.66,-1.33 131.172,-17.78 223.102,-138.52 205.332,-269.69 -7.793,-57.52 -35.402,-107.48 -74.988,-143.96 127.141,-85.96 201.863,-239.1 179.856,-401.48 -13.286,-98.07 -59.723,-183.45 -126.407,-246.56 78.477,-61.12 123.43,-160.95 109.114,-266.61 -9.821,-72.48 -45.918,-134.79 -97.168,-179.2 68.531,-28.12 112.32,-99.62 101.91,-176.45 -6.18,-45.6 -30.25,-84.38 -64.172,-110.23 56.465,-112.17 61.559,-248 3.512,-368.43 118.668,-74.02 195.207,-205.1 196.41,-349.81 11.34,1.2 22.808,1.85 34.394,1.85 13.063,0 26.266,-0.82 39.579,-2.63 33.058,-4.48 64.187,-14.04 92.687,-27.79 l 0,-439.11 60,0 c 0,-49.891 0,-99.77 0,-149.66 l 1047.56,0 c 81.39,-88.938 138.94,-198.988 164.39,-319.27 31.49,6.68 63.98,10.192 97.09,10.192 20.88,0 42.01,-1.391 63.28,-4.282 70.67,-9.57 135.47,-34.488 191.62,-70.8394 72.36,129.2114 210.43,213.3204 363.24,213.3204 18.63,0 37.49,-1.25 56.46,-3.82 93.66,-12.692 175.79,-55.621 237.96,-117.551 49.01,37.289 109.86,59 174.51,59 12.92,0 25.99,-0.86 39.14,-2.649 C 3625.88,226.75 3723.93,124.25 3741.98,0"
         id="path164"
         inkscape:connector-curvature="0" /></clipPath><linearGradient
       x1="0"
       y1="0"
       x2="1"
       y2="0"
       gradientUnits="userSpaceOnUse"
       gradientTransform="matrix(2386.14,10413.8,10413.8,-2386.14,5648.38,2215.44)"
       spreadMethod="pad"
       id="linearGradient166"><stop
         style="stop-opacity:1;stop-color:#455776"
         offset="0"
         id="stop168" /><stop
         style="stop-opacity:1;stop-color:#c5c4d5"
         offset="0.998698"
         id="stop170" /><stop
         style="stop-opacity:1;stop-color:#c5c4d5"
         offset="1"
         id="stop172" /></linearGradient><clipPath
       clipPathUnits="userSpaceOnUse"
       id="clipPath180"><path
         d="m 11290,480.34 -849.1,0 0,0.012 849.1,0 0,-0.012 m -1303.4,0 -98.67,0 -0.01,0.012 98.7,0 -0.02,-0.012"
         id="path182"
         inkscape:connector-curvature="0" /></clipPath><clipPath
       clipPathUnits="userSpaceOnUse"
       id="clipPath192"><path
         d="m 8662.36,480.34 -445.4,0 -0.02,0.012 445.43,0 c -0.02,-0.012 0.01,0 -0.01,-0.012 m -2791.8,0 -429.12,0 0,0.012 429.12,0 0,-0.012 m -1746.95,0 -121.21,0 c -0.01,0 -0.02,0.012 -0.02,0.012 l 121.23,0 0,-0.012 m -432.71,0 -15.84,0 0,0.012 15.86,0 c -0.01,-0.012 -0.01,-0.012 -0.02,-0.012"
         id="path194"
         inkscape:connector-curvature="0" /></clipPath><clipPath
       clipPathUnits="userSpaceOnUse"
       id="clipPath204"><path
         d="m 10440.9,480.34 -454.3,0 0.02,0.012 454.28,0 0,-0.012 m -552.97,0 -46.13,0 0,0.012 46.12,0 0.01,-0.012"
         id="path206"
         inkscape:connector-curvature="0" /></clipPath><clipPath
       clipPathUnits="userSpaceOnUse"
       id="clipPath216"><path
         d="m 9841.8,480.34 -1179.44,0 c 0.02,0.012 -0.01,0 0.01,0.012 l 1179.43,0 0,-0.012 m -1624.84,0 -921.07,0 0,0.012 921.05,0 0.02,-0.012 m -2094.64,0 -251.76,0 0,0.012 251.78,0 -0.02,-0.012 m -680.88,0 -597.51,0 c 0,0.012 0,0 -0.01,0.012 l 597.52,0 0,-0.012 m -1089.98,0 -227.85,0 0,0.012 227.86,0 c -0.01,-0.012 0,0 -0.01,-0.012 m -349.06,0 -311.5,0 c 0.01,0 0.01,0 0.02,0.012 l 311.46,0 c 0,0 0.01,-0.012 0.02,-0.012 m -327.34,0 -370.18,0 -0.01,0.012 370.19,0 0,-0.012 m -680.3,0 -270.31,0 c -0.01,0 -0.01,0 -0.01,0.012 l 270.33,0 c -0.01,-0.012 -0.01,-0.012 -0.01,-0.012"
         id="path218"
         inkscape:connector-curvature="0" /></clipPath><clipPath
       clipPathUnits="userSpaceOnUse"
       id="clipPath228"><path
         d="m 7295.89,480.34 -1173.57,0 0.02,0.012 1173.55,0 0,-0.012 m -2451.96,0 -492.47,0 c 0.01,0.012 0,0 0.01,0.012 l 492.45,0 c 0.01,-0.012 0.01,0 0.01,-0.012 m -1539.05,0 -310.12,0 c 0,0 0,0 0.01,0.012 l 310.1,0 0.01,-0.012 m -580.43,0 -616.89,0 c -0.01,0.012 0.01,-0.008 0,0.012 l 616.88,0 c 0,-0.012 0,-0.012 0.01,-0.012"
         id="path230"
         inkscape:connector-curvature="0" /></clipPath><clipPath
       clipPathUnits="userSpaceOnUse"
       id="clipPath240"><path
         d="m 2107.56,480.34 -1047.56,0 c 0,49.89 0,99.769 0,149.66 l 0,0 c 0,-49.891 0,-99.77 0,-149.648 l 0,0 0,0 1047.56,0 c 0.01,-0.02 -0.01,0 0,-0.012"
         id="path242"
         inkscape:connector-curvature="0" /></clipPath><clipPath
       clipPathUnits="userSpaceOnUse"
       id="clipPath252"><path
         d="m 11290,480.352 -849.1,0 c -63,32.199 -133.8,51.468 -209.2,54.199 -6.1,0.219 -12.2,0.34 -18.3,0.34 -81.4,0 -158.6,-19.641 -226.78,-54.539 l -98.7,0 c -29.05,23.55 -59.48,45.468 -91.17,65.617 -21.43,29.043 -44.21,57.094 -68.23,84.031 l 1271.48,0 0,6240 -9940,0 c 0,0.13 0,0.25 0,0.37 3138.29,0 6276.57,0 9414.9,0 197.9,0 395.8,0 593.8,0 73.8,0 147.5,0 221.3,0 l 0,-6390.03"
         id="path254"
         inkscape:connector-curvature="0" /></clipPath><clipPath
       clipPathUnits="userSpaceOnUse"
       id="clipPath258"><path
         d="m 1056,6511.2 10238.4,0 0,362.402 -10238.4,0 0,-362.402 z"
         id="path260"
         inkscape:connector-curvature="0" /></clipPath><clipPath
       clipPathUnits="userSpaceOnUse"
       id="clipPath270"><path
         d="m 11290,480.352 -849.1,0 c -63,32.199 -133.8,51.468 -209.2,54.199 -6.1,0.219 -12.2,0.34 -18.3,0.34 -81.4,0 -158.6,-19.641 -226.78,-54.539 l -98.7,0 c -29.05,23.55 -59.48,45.468 -91.17,65.617 -21.43,29.043 -44.21,57.094 -68.23,84.031 l 1271.48,0 0,6240 -9940,0 c 0,0.13 0,0.25 0,0.37 3138.29,0 6276.57,0 9414.9,0 197.9,0 395.8,0 593.8,0 73.8,0 147.5,0 221.3,0 l 0,-6390.03"
         id="path272"
         inkscape:connector-curvature="0" /></clipPath><clipPath
       clipPathUnits="userSpaceOnUse"
       id="clipPath276"><path
         d="m 10934.4,477.602 360,0 0,6040.8 -360,0 0,-6040.8 z"
         id="path278"
         inkscape:connector-curvature="0" /></clipPath><clipPath
       clipPathUnits="userSpaceOnUse"
       id="clipPath288"><path
         d="m 11290,480.352 -849.1,0 c -63,32.199 -133.8,51.468 -209.2,54.199 -6.1,0.219 -12.2,0.34 -18.3,0.34 -81.4,0 -158.6,-19.641 -226.78,-54.539 l -98.7,0 c -29.05,23.55 -59.48,45.468 -91.17,65.617 -21.43,29.043 -44.21,57.094 -68.23,84.031 l 1271.48,0 0,6240 -9940,0 c 0,0.13 0,0.25 0,0.37 3138.29,0 6276.57,0 9414.9,0 197.9,0 395.8,0 593.8,0 73.8,0 147.5,0 221.3,0 l 0,-6390.03"
         id="path290"
         inkscape:connector-curvature="0" /></clipPath><clipPath
       clipPathUnits="userSpaceOnUse"
       id="clipPath294"><path
         d="m 9523.2,477.602 1418.4,0 0,362.398 -1418.4,0 0,-362.398 z"
         id="path296"
         inkscape:connector-curvature="0" /></clipPath><clipPath
       clipPathUnits="userSpaceOnUse"
       id="clipPath306"><path
         d="m 8662.37,480.352 -445.43,0 c -82.88,26.558 -170.71,42.359 -261.98,45.66 -11.78,0.429 -23.52,0.636 -35.22,0.636 -22.43,0 -44.7,-0.777 -66.78,-2.277 -4.97,37.969 -17.36,73.699 -35.72,105.629 l 568.47,0 413,0 119.9,0 c -93.17,-36.719 -179.49,-87.449 -256.24,-149.648 m -2791.81,0 -429.12,0 c -18.77,57.98 -52.43,109.437 -96.65,149.648 l 603.22,0 c -33.69,-44.559 -60.12,-95.02 -77.45,-149.648 m -1746.95,0 -121.23,0 c -43.16,12.437 -88.5,19.867 -135.42,21.558 -6.9,0.25 -13.77,0.379 -20.61,0.379 -53.83,0 -105.98,-7.68 -155.43,-21.937 l -15.86,0 c -16.91,52.328 -39,102.437 -65.65,149.648 l 640,0 c -51.06,-40.941 -93.98,-91.738 -125.8,-149.648 m 5673.14,65.617 c -51.85,32.961 -107.1,61.203 -165.1,84.031 l 96.87,0 c 24.02,-26.937 46.8,-54.988 68.23,-84.031 m -4919.72,81.14 c -1.19,0.973 -2.37,1.93 -3.57,2.891 l 6.72,0 c -1.06,-0.961 -2.11,-1.918 -3.15,-2.891"
         id="path308"
         inkscape:connector-curvature="0" /></clipPath><clipPath
       clipPathUnits="userSpaceOnUse"
       id="clipPath318"><path
         d="m 10440.9,480.352 -454.28,0 c 68.18,34.898 145.38,54.539 226.78,54.539 6.1,0 12.2,-0.121 18.3,-0.34 75.4,-2.731 146.2,-22 209.2,-54.199 m -552.98,0 -46.12,0 c -14.28,22.398 -29.29,44.257 -45.05,65.617 31.69,-20.149 62.12,-42.067 91.17,-65.617"
         id="path320"
         inkscape:connector-curvature="0" /></clipPath><clipPath
       clipPathUnits="userSpaceOnUse"
       id="clipPath330"><path
         d="m 9841.8,480.352 -1179.43,0 c 76.75,62.199 163.07,112.929 256.24,149.648 l 713.04,0 c 58,-22.828 113.25,-51.07 165.1,-84.031 15.76,-21.36 30.77,-43.219 45.05,-65.617 m -1624.86,0 -921.05,0 C 7267.57,537.34 7228.17,588.281 7180.14,630 l 637.1,0 c 18.36,-31.93 30.75,-67.66 35.72,-105.629 22.08,1.5 44.35,2.277 66.78,2.277 11.7,0 23.44,-0.207 35.22,-0.636 91.27,-3.301 179.1,-19.102 261.98,-45.66 m -2094.6,0 -251.78,0 c 17.33,54.628 43.76,105.089 77.45,149.648 l 602.86,0 c -22.63,-19.59 -43.46,-41.309 -62.16,-64.879 -8.17,0.27 -16.35,0.399 -24.47,0.399 -122.24,0 -238.96,-30.54 -341.9,-85.168 m -680.9,0 -597.52,0 c -55.33,33.097 -118.27,55.527 -186.36,64.089 -20.33,2.559 -40.55,3.809 -60.51,3.809 -88.73,0 -173.06,-24.57 -245.58,-67.898 l -227.86,0 c 31.82,57.91 74.74,108.707 125.8,149.648 l 624.05,0 c 1.2,-0.961 2.38,-1.918 3.57,-2.891 1.04,0.973 2.09,1.93 3.15,2.891 l 464.61,0 c 44.22,-40.211 77.88,-91.668 96.65,-149.648 m -1439.06,0 -311.46,0 c 49.45,14.257 101.6,21.937 155.43,21.937 6.84,0 13.71,-0.129 20.61,-0.379 46.92,-1.691 92.26,-9.121 135.42,-21.558 m -327.32,0 -370.19,0 c -34.93,23.609 -75.78,39.578 -120.5,45.199 -11.75,1.469 -23.43,2.187 -34.97,2.187 -56.58,0 -110.02,-17.297 -154.63,-47.386 l -270.33,0 c -44.04,20.488 -91.97,34.597 -142.76,40.988 -20.33,2.551 -40.53,3.801 -60.5,3.801 -61.21,0 -120.32,-11.692 -174.92,-33.172 -20.23,50.601 -48.89,97.273 -84.44,138.031 l 1347.59,0 c 26.65,-47.211 48.74,-97.32 65.65,-149.648"
         id="path332"
         inkscape:connector-curvature="0" /></clipPath><clipPath
       clipPathUnits="userSpaceOnUse"
       id="clipPath342"><path
         d="m 7295.89,480.352 -1173.55,0 c 102.94,54.628 219.66,85.168 341.9,85.168 8.12,0 16.3,-0.129 24.47,-0.399 18.7,23.57 39.53,45.289 62.16,64.879 l 629.27,0 c 48.03,-41.719 87.43,-92.66 115.75,-149.648 m -2451.97,0 -492.45,0 c 72.52,43.328 156.85,67.898 245.58,67.898 19.96,0 40.18,-1.25 60.51,-3.809 68.09,-8.562 131.03,-30.992 186.36,-64.089 m -1539.05,0 -310.1,0 c 44.61,30.089 98.05,47.386 154.63,47.386 11.54,0 23.22,-0.718 34.97,-2.187 44.72,-5.621 85.57,-21.59 120.5,-45.199 m -580.43,0 -616.88,0 C 2051.77,541.301 1984.76,592.371 1909.22,630 l 352.6,0 c 35.55,-40.758 64.21,-87.43 84.44,-138.031 54.6,21.48 113.71,33.172 174.92,33.172 19.97,0 40.17,-1.25 60.5,-3.801 50.79,-6.391 98.72,-20.5 142.76,-40.988"
         id="path344"
         inkscape:connector-curvature="0" /></clipPath><clipPath
       clipPathUnits="userSpaceOnUse"
       id="clipPath354"><path
         d="m 2107.56,480.352 -1047.56,0 c 0,49.878 0,99.757 0,149.648 l 849.22,0 c 75.54,-37.629 142.55,-88.699 198.34,-149.648"
         id="path356"
         inkscape:connector-curvature="0" /></clipPath><clipPath
       clipPathUnits="userSpaceOnUse"
       id="clipPath366"><path
         d="m 11000,630 -2201.29,0 c 131.32,142.422 240.73,302.641 301.15,485.52 162.01,490.37 -110.4,1083.09 -588.04,1279.49 -105.86,43.52 -219.37,70.03 -335.41,89.82 -236.44,95.17 -510.29,107.18 -764.77,149.66 -95.87,39.7 -183.58,94.22 -258.76,172.33 -206.33,214.35 -242.35,540.22 -401.23,791.77 -202.6,320.77 -575.03,478.82 -955.19,550 -26.36,9.37 -52.98,18.15 -79.86,26.4 95.7,139.08 183.9,287.89 263.21,445.15 -123.4,45.71 -268.61,128.03 -410.96,241.53 -98.98,-117.36 -200.19,-232.85 -303.55,-346.36 l 0,0 c 103.36,113.51 204.57,229 303.55,346.36 -31.91,25.44 -63.68,52.42 -95.03,80.94 -171.17,155.74 -298.76,328.23 -368.7,473.35 -323.05,-203.19 -602.71,-444.26 -827.24,-707.64 l -44.66,40.63 c -8.97,-11.02 -17.97,-22.06 -26.98,-33.05 -152.75,221.83 -262.83,482.47 -469.92,654.51 -154.31,128.19 -341.18,191.43 -539.81,216.69 -171.46,75.17 -364.93,100.71 -561.99,100.71 -153.15,0 -308.49,-15.43 -457.32,-34.98 -369.35,-48.5 -736.8,-111.46 -1101.24,-188.64 -23.93,-5.06 -49.36,-9.91 -75.96,-14.64 l 0,126.55 0,1293.9 60,0 9940,0 0,-6240"
         id="path368"
         inkscape:connector-curvature="0" /></clipPath><linearGradient
       x1="0"
       y1="0"
       x2="1"
       y2="0"
       gradientUnits="userSpaceOnUse"
       gradientTransform="matrix(-7651.68,-7066.65,-7066.65,7651.68,11510.5,8679.38)"
       spreadMethod="pad"
       id="linearGradient370"><stop
         style="stop-opacity:1;stop-color:#c4e5f7"
         offset="0"
         id="stop372" /><stop
         style="stop-opacity:1;stop-color:#ffffff"
         offset="0.99363"
         id="stop374" /><stop
         style="stop-opacity:1;stop-color:#ffffff"
         offset="1"
         id="stop376" /></linearGradient><clipPath
       clipPathUnits="userSpaceOnUse"
       id="clipPath384"><path
         d="m 8798.71,630 -413,0 c 168.35,163.41 312.94,351.359 385.97,572.39 162.01,490.38 -110.4,1083.1 -588.05,1279.5 -2.41,0.99 -4.8,1.96 -7.22,2.94 116.04,-19.79 229.55,-46.3 335.41,-89.82 477.64,-196.4 750.05,-789.12 588.04,-1279.49 C 9039.44,932.641 8930.03,772.422 8798.71,630 M 7411.64,2634.49 c -223.36,37.29 -431.83,98.07 -586.94,259.2 -206.33,214.36 -242.36,540.23 -401.23,791.78 -143.23,226.77 -371.31,372.2 -627.01,463.12 380.16,-71.18 752.59,-229.23 955.19,-550 158.88,-251.55 194.9,-577.42 401.23,-791.77 75.18,-78.11 162.89,-132.63 258.76,-172.33 M 4083.78,4569.12 c -1,0.83 -2.01,1.68 -3.01,2.51 -285.21,239.75 -386.04,647.56 -672.63,885.65 -65.26,54.21 -136.32,96.8 -211.63,129.82 198.63,-25.26 385.5,-88.5 539.81,-216.69 207.09,-172.04 317.17,-432.68 469.92,-654.51 -40.38,-49.31 -81.13,-98.3 -122.46,-146.78"
         id="path386"
         inkscape:connector-curvature="0" /></clipPath><linearGradient
       x1="0"
       y1="0"
       x2="1"
       y2="0"
       gradientUnits="userSpaceOnUse"
       gradientTransform="matrix(1351.34,5897.62,5897.62,-1351.34,4622.37,1450.51)"
       spreadMethod="pad"
       id="linearGradient388"><stop
         style="stop-opacity:1;stop-color:#0d2136"
         offset="0"
         id="stop390" /><stop
         style="stop-opacity:1;stop-color:#406eae"
         offset="0.998698"
         id="stop392" /><stop
         style="stop-opacity:1;stop-color:#406eae"
         offset="1"
         id="stop394" /></linearGradient><clipPath
       clipPathUnits="userSpaceOnUse"
       id="clipPath402"><path
         d="m 1000,630 10000,0 0,6240 -10000,0 0,-6240 z"
         id="path404"
         inkscape:connector-curvature="0" /></clipPath><clipPath
       clipPathUnits="userSpaceOnUse"
       id="clipPath408"><path
         d="m 2177.2,5652.83 c 424.43,55.75 901.67,77.99 1230.94,-195.55 286.59,-238.09 387.42,-645.9 672.63,-885.65 313.58,-263.58 762.25,-260.39 1169.54,-304.33 449.39,-48.48 931.79,-199.67 1173.16,-581.83 158.87,-251.55 194.9,-577.42 401.23,-791.78 333.63,-346.59 914,-228.87 1358.93,-411.8 477.65,-196.4 750.06,-789.12 588.05,-1279.5 C 8677.45,917.199 8464.08,687.082 8234.27,493.691 7778.04,109.77 7232.18,-166.961 6652.82,-308.031 5922.51,-485.852 5159.84,-448.23 4408.28,-436.52 c -911.99,14.2 -1831.65,-10.761 -2727.8,159.071 -458.62,86.91 -917.187,229.2888 -1292.808,506.41 C -114.129,599.18 -421.332,1172.6 -677.156,1741.3 c -102.18,227.13 -200.598,465.11 -197.633,714.14 5.359,449.8 330.644,820.67 544.273,1216.55 156.469,289.95 256.5668,609.94 295.1605,937.07 22.1992,188.16 -33.7304,465.63 136.3865,595.1 227.719,173.31 699.403,201.69 974.929,260.03 364.44,77.18 731.89,140.14 1101.24,188.64"
         id="path410"
         inkscape:connector-curvature="0" /></clipPath><clipPath
       clipPathUnits="userSpaceOnUse"
       id="clipPath414"><path
         d="m 8385.71,630 -7385.71,0 0,4819.55 c 26.6,4.73 52.03,9.58 75.96,14.64 364.44,77.18 731.89,140.14 1101.24,188.64 148.83,19.55 304.17,34.98 457.32,34.98 197.06,0 390.53,-25.54 561.99,-100.71 75.31,-33.02 146.37,-75.61 211.63,-129.82 286.59,-238.09 387.42,-645.9 672.63,-885.65 1,-0.83 2.01,-1.68 3.01,-2.51 -210.21,-246.56 -434.94,-479.31 -697.91,-666.93 -130.52,-93.12 -271.12,-175.03 -424.63,-221.3 -81.75,-24.64 -167.57,-38.63 -252.89,-38.63 -26.31,0 -52.57,1.33 -78.65,4.09 l -204.72,-239.52 c 99.7,-90.7 223.8,-137.75 344.39,-137.75 85.97,0 170.14,23.91 242.42,72.95 l 471.31,319.81 -90.95,-120.85 c 19.02,-89.59 101.37,-220.29 224.67,-355.76 l 0,0 0,0 c 40.87,-44.92 86.23,-90.35 135.29,-134.98 73.9,-67.24 148.81,-125.97 219.97,-173.86 23.73,-15.97 47.03,-30.74 69.74,-44.2 22.71,-13.47 44.82,-25.64 66.17,-36.44 10.68,-5.4 21.16,-10.45 31.42,-15.15 30.81,-14.1 59.68,-24.99 86.02,-32.4 17.57,-4.94 34.01,-8.33 49.15,-10.06 l 111.76,101.94 -242.32,-441.64 c 140.22,6.48 280.8,50.73 405.65,116.8 200.01,105.85 367.23,263.12 531.79,418.45 164.02,154.84 328.05,309.67 492.08,464.5 -17.03,97.46 -66.89,192.16 -148.88,266.75 l -71.4,64.96 c 129.8,133.74 251.68,282.8 363.34,445.09 26.88,-8.25 53.5,-17.03 79.86,-26.4 255.7,-90.92 483.78,-236.35 627.01,-463.12 158.87,-251.55 194.9,-577.42 401.23,-791.78 155.11,-161.13 363.58,-221.91 586.94,-259.2 254.48,-42.48 528.33,-54.49 764.77,-149.66 2.42,-0.98 4.81,-1.95 7.22,-2.94 477.65,-196.4 750.06,-789.12 588.05,-1279.5 C 8698.65,981.359 8554.06,793.41 8385.71,630 m -4741.76,2555.1 0,0 c 0.06,0 0.11,0 0.17,0 -0.06,0 -0.11,0 -0.17,0 m -0.04,0 c -4.48,0 -8.97,0.01 -13.46,0.04 4.49,-0.03 8.98,-0.04 13.46,-0.04 m 131.48,10.89 c 0.6,0.13 1.21,0.26 1.81,0.4 107.91,24.17 198.12,95.81 283.15,166.51 164.68,136.94 325.63,278.28 482.73,423.84 l 0,0 c -157.1,-145.56 -318.05,-286.9 -482.73,-423.84 -85.03,-70.7 -175.24,-142.34 -283.15,-166.51 -0.6,-0.14 -1.21,-0.27 -1.81,-0.4"
         id="path416"
         inkscape:connector-curvature="0" /></clipPath><linearGradient
       x1="0"
       y1="0"
       x2="1"
       y2="0"
       gradientUnits="userSpaceOnUse"
       gradientTransform="matrix(1780.87,7137.97,7137.97,-1780.87,5666.41,1905.75)"
       spreadMethod="pad"
       id="linearGradient418"><stop
         style="stop-opacity:1;stop-color:#0d2136"
         offset="0"
         id="stop420" /><stop
         style="stop-opacity:1;stop-color:#406eae"
         offset="0.998698"
         id="stop422" /><stop
         style="stop-opacity:1;stop-color:#406eae"
         offset="1"
         id="stop424" /></linearGradient><clipPath
       clipPathUnits="userSpaceOnUse"
       id="clipPath432"><path
         d="m 1000,630 10000,0 0,6240 -10000,0 0,-6240 z"
         id="path434"
         inkscape:connector-curvature="0" /></clipPath></defs><sodipodi:namedview
     pagecolor="#ffffff"
     bordercolor="#666666"
     borderopacity="1"
     objecttolerance="10"
     gridtolerance="10"
     guidetolerance="10"
     inkscape:pageopacity="0"
     inkscape:pageshadow="2"
     inkscape:window-width="1366"
     inkscape:window-height="710"
     id="namedview4"
     showgrid="false"
     inkscape:zoom="0.25066667"
     inkscape:cx="750"
     inkscape:cy="468.75"
     inkscape:window-x="0"
     inkscape:window-y="0"
     inkscape:window-maximized="1"
     inkscape:current-layer="g10" /><g
     id="g10"
     inkscape:groupmode="layer"
     inkscape:label="ink_ext_XXXXXX"
     transform="matrix(1.25,0,0,-1.25,0,600)"><rect
       style="opacity:1;fill:#ffffff;fill-opacity:1;fill-rule:evenodd;stroke:#ffffff;stroke-width:0.81760126;stroke-opacity:1"
       id="rect4443"
       width="479.1824"
       height="479.1824"
       x="0.40880063"
       y="-479.59122"
       transform="scale(1,-1)" /><g
       id="g428"
       transform="matrix(0.0872892,0,0,0.08643167,-87.2892,-54.451952)"><g
         clip-path="url(#clipPath432)"
         id="g430"><path
           inkscape:connector-curvature="0"
           id="path436"
           style="fill:#73a6e6;fill-opacity:1;fill-rule:nonzero;stroke:none"
           d="m 1071.12,5975.34 c -0.09,-114.89 -93.3,-207.95 -208.186,-207.86 -114.887,0.09 -207.946,93.3 -207.856,208.18 0.094,114.89 93.301,207.95 208.184,207.86 114.886,-0.09 207.948,-93.3 207.858,-208.18" /><path
           inkscape:connector-curvature="0"
           id="path438"
           style="fill:#73a6e6;fill-opacity:1;fill-rule:nonzero;stroke:none"
           d="m 9699.82,1128.96 c -0.12,-159.14 -129.23,-288.038 -288.38,-287.921 -159.15,0.121 -288.05,129.242 -287.92,288.381 0.11,159.14 129.23,288.06 288.37,287.93 159.15,-0.12 288.06,-129.23 287.93,-288.39" /><path
           inkscape:connector-curvature="0"
           id="path440"
           style="fill:#73a6e6;fill-opacity:1;fill-rule:nonzero;stroke:none"
           d="m 9227.25,526.059 c 55.92,535.141 -332.55,1014.281 -867.68,1070.211 -67.91,7.09 -134.9,6.96 -200.25,0.36 -43.71,188.8 -202.87,337.86 -406.43,359.13 -168.43,17.61 -325.28,-56.63 -420.75,-182.31 -186.19,2.3 -359.21,-68.22 -489.03,-187.1 -43.05,47.1 -102.62,79.4 -171.07,86.56 -140.57,14.69 -267.04,-81.26 -293.2,-217.54 -59.12,59.16 -138.14,99.22 -227.8,108.59 -92.32,9.64 -180.29,-14.87 -251.48,-63.26 -73.78,116.79 -198.31,199.92 -346.36,215.38 -199.45,20.85 -382.62,-87.12 -466.88,-256.74 -90.04,77.22 -203.58,128.9 -330.48,142.17 -150.86,15.77 -294.46,-25.49 -409.64,-106.2 -35.22,92.02 -119.44,161.49 -224.14,172.43 -125.43,13.11 -239.48,-61.98 -281.24,-175.08 -74.92,86.49 -181.52,145.89 -304.32,158.73 -80.52,8.4 -158.38,-4.18 -228.17,-33.33 -64.21,151.31 -206.47,264.14 -381.54,282.43 -59.35,6.2 -117.22,0.88 -171.52,-13.97 -109.31,202.52 -288.82,363.71 -509.56,448.02 17.79,33.58 29.75,70.95 33.94,111.06 13.8,132.02 -58.9,252.87 -172.19,307.01 89.97,75.15 151.99,183.96 165.14,309.77 17.78,170.13 -58.2,328.37 -186.17,423.55 128.18,9.19 235.3,108.89 249.12,241.17 10.68,102.16 -37.06,196.96 -116.26,251.18 51.56,43.45 87.16,106 94.72,178.36 15.51,148.41 -92.22,281.29 -240.63,296.8 -31.14,3.25 -61.5,0.8 -90.32,-6.03 28.16,52.6 46.88,111.37 53.47,174.38 23.32,223.23 -112.23,426.32 -315.38,497.08 4.28,17.14 7.49,34.74 9.38,52.81 21.69,207.55 -128.98,393.39 -336.53,415.08 -207.55,21.69 -393.38,-128.98 -415.074,-336.53 -4.594,-43.98 -1.375,-86.96 8.41,-127.64 L -161.793,4796.95 338.891,122.531 8342.59,-625.348 l -32.97,279.746 c 470.83,24.262 867.09,388.0239 917.63,871.661" /><path
           inkscape:connector-curvature="0"
           id="path442"
           style="fill:#5d8dcf;fill-opacity:1;fill-rule:nonzero;stroke:none"
           d="M 565.836,-649.93 368.605,-470.488 3566.88,3044.78 3764.11,2865.33 565.836,-649.93" /><path
           inkscape:connector-curvature="0"
           id="path444"
           style="fill:#5d8dcf;fill-opacity:1;fill-rule:nonzero;stroke:none"
           d="m 727.047,-796.609 -88.234,80.269 3198.277,3515.28 88.23,-80.29 L 727.047,-796.609" /><path
           inkscape:connector-curvature="0"
           id="path446"
           style="fill:#5d8dcf;fill-opacity:1;fill-rule:nonzero;stroke:none"
           d="m 295.621,-404.09 -88.226,80.27 3198.275,3515.28 88.23,-80.29 L 295.621,-404.09" /><path
           inkscape:connector-curvature="0"
           id="path448"
           style="fill:#5d8dcf;fill-opacity:1;fill-rule:nonzero;stroke:none"
           d="m 9810.29,762.43 c 8.36,231.07 -172.16,425.16 -403.23,433.53 -94.24,3.41 -182.3,-24.61 -254.15,-74.65 -137.63,124.64 -318.17,203.38 -518.24,210.62 -270.35,9.79 -514.65,-113.08 -670.49,-310.19 -129.72,99.17 -290.2,160.7 -465.79,167.06 -28.83,1.04 -57.35,0.54 -85.52,-1.37 -14.97,114.46 -110.51,204.82 -229.71,209.13 -84.73,3.07 -160.68,-38.15 -205.93,-102.81 -72.72,76.15 -173.99,125.18 -287.53,129.29 -99.35,3.6 -191.81,-27.8 -265.66,-83.04 -69.66,60.44 -159.62,98.44 -258.96,102.04 -220.79,7.99 -407.71,-156.53 -431.2,-372.77 -9,4.57 -18.16,8.95 -27.62,12.93 -100.21,42.11 -207.53,42.25 -302.45,8.46 -14.39,141.85 -131.24,255.01 -277.75,260.32 -80.01,2.9 -153.62,-26.9 -207.97,-77.43 -68.26,55.77 -154.58,90.56 -249.45,94 -176.87,6.4 -331.97,-97.94 -398.8,-250.83 -59.71,30.78 -126.93,49.29 -198.52,51.88 -55.69,2.02 -109.46,-5.79 -159.69,-21.75 -84.91,267.86 -330.66,466.28 -627.57,477.04 -108.35,3.91 -211.67,-17.68 -304.33,-59.24 -9.24,114.47 -102.82,206.47 -220.4,210.73 -12.45,0.45 -24.63,-0.38 -36.62,-1.85 -48.64,99.48 -149.04,169.64 -267.43,173.92 -25.44,0.93 -50.15,-1.59 -74.02,-6.51 -15.49,144.51 -104.92,267.96 -230.84,330.23 46.12,126.1 27.62,261.36 -39.89,367.89 31.35,29.18 51.58,70.32 53.25,116.51 2.82,77.82 -48.01,144.96 -119.28,166.3 46.84,49.44 76.76,115.28 79.43,188.7 3.87,107.02 -50.92,202.37 -135.39,255.7 60.42,69.67 98.4,159.59 102,258.92 5.95,164.47 -83.85,310.14 -219.41,383.5 35.96,40.38 58.63,93.04 60.74,151.3 4.8,132.86 -99,244.47 -231.86,249.28 -5.32,0.19 -10.54,-0.08 -15.78,-0.23 11.63,38.23 18.61,78.53 20.13,120.34 7.27,200.69 -112.19,376.49 -286.62,450.59 10.35,47.25 16.87,95.98 18.68,146.03 16.32,450.72 -335.83,829.33 -786.549,845.66 -450.715,16.31 -829.328,-335.83 -845.652,-786.55 -16.321,-450.73 335.832,-829.33 786.547,-845.66 43.57,-1.57 86.437,0.37 128.39,5.44 L 484.262,1398.26 2518.67,-605.211 l 6768.15,142.43 155.73,824.769 c 201.03,24.254 360.18,191.703 367.74,400.442" /><path
           inkscape:connector-curvature="0"
           id="path450"
           style="fill:#456cb0;fill-opacity:1;fill-rule:nonzero;stroke:none"
           d="m 7880.89,111.68 c 57.89,460.461 -268.45,880.66 -728.91,938.55 -58.43,7.35 -116.2,8.45 -172.67,3.93 -34.28,163.6 -168.84,295.02 -344,317.04 -144.92,18.22 -281.53,-42.97 -366.12,-149.61 -160.52,5.34 -311,-52.33 -425.09,-152.52 -36.27,41.4 -87.06,70.33 -145.96,77.74 -120.95,15.2 -231.74,-65.25 -256.77,-182.298 -49.91,52.088 -117.32,88.058 -194.48,97.758 -79.43,9.99 -155.74,-9.56 -218,-50 -61.51,102.04 -167.4,175.96 -294.79,191.98 -171.61,21.58 -331.52,-68.21 -407.25,-212.969 -76.24,68.219 -173.22,114.839 -282.42,128.569 -129.81,16.32 -254.38,-16.67 -355.17,-84.18 -28.7,79.99 -100.08,141.42 -190.17,152.75 -107.92,13.56 -207.63,-49.12 -245.68,-145.91 -63.05,75.95 -153.9,129.09 -259.56,142.37 -69.28,8.71 -136.66,-0.74 -197.36,-24.62 -52.65,131.65 -173.28,231.52 -323.92,250.45 -51.07,6.43 -101.07,2.87 -148.17,-8.94 -90.6,176.62 -242.49,318.85 -431.32,395.54 15.95,28.64 26.94,60.65 31.28,95.16 14.28,113.6 -46.23,219.13 -142.95,267.86 78.95,63.19 134.4,155.9 148.01,264.15 18.4,146.39 -44.25,284.22 -152.89,368.6 110.71,5.61 204.87,89.65 219.18,203.47 11.05,87.91 -28.41,170.52 -95.72,218.71 45.25,36.54 77.08,89.83 84.91,152.09 16.05,127.71 -74.45,244.24 -202.15,260.3 -26.79,3.37 -53.01,1.79 -78,-3.58 25.24,44.86 42.45,95.21 49.26,149.42 24.15,192.08 -89.08,369.65 -262.98,434.35 4,14.69 7.09,29.82 9.04,45.37 22.45,178.59 -104.12,341.57 -282.7,364.02 -178.59,22.45 -341.565,-104.12 -364.018,-282.71 -4.758,-37.85 -2.762,-74.97 4.945,-110.22 l -996.82,-260.05 347.324,-4040 6888.419,-789.5 -23.39,241.84 c 406.45,12.41 754.74,318.941 807.06,735.09" /><path
           inkscape:connector-curvature="0"
           id="path452"
           style="fill:#27528c;fill-opacity:1;fill-rule:nonzero;stroke:none"
           d="M 7602.34,79.4805 C 7628.25,270.73 7494.23,446.77 7302.98,472.691 c -77.99,10.559 -153.45,-5.492 -217.24,-41.16 -104.08,114.821 -247.6,195.039 -413.18,217.481 -223.77,30.32 -436.78,-51.703 -582.4,-202.633 -99.61,93.012 -227.87,157.293 -373.2,176.992 -23.86,3.231 -47.59,5.149 -71.14,5.879 -3.05,96.313 -74.99,179.191 -173.65,192.563 -70.13,9.496 -136.59,-18.512 -179.49,-68.504 -54.16,69.23 -134.25,118.261 -228.23,130.992 -82.22,11.14 -161.6,-7.352 -227.48,-47.172 -52.91,55.922 -124.5,94.859 -206.73,106 -182.75,24.762 -351.51,-96.57 -388.77,-274.25 -7.1,4.531 -14.35,8.922 -21.88,13 -79.78,43.203 -168.92,52.133 -250.53,31.851 -0.31,119 -88.09,222.602 -209.35,239.032 -66.22,8.968 -129.82,-9.742 -179.11,-47.242 -52.12,51.91 -120.96,87.902 -199.49,98.53 -146.39,19.84 -283.78,-54.101 -351.84,-175.62 -47.07,30.48 -101.39,51.359 -160.64,59.39 -46.1,6.25 -91.4,4.18 -134.44,-4.961 -48.55,229.451 -236.4,414.441 -482.13,447.751 -89.68,12.14 -177.28,2.68 -257.66,-24.24 1.72,95.85 -68.46,179.95 -165.78,193.13 -10.3,1.4 -20.49,1.71 -30.57,1.47 -32.23,86.62 -109.88,153.14 -207.87,166.42 -21.05,2.85 -41.78,2.8 -62.01,0.67 -1.01,121.31 -65.17,231.18 -164.65,293.24 48.66,100.96 44.39,214.83 -2.94,308.86 28.43,21.67 48.61,54.18 53.79,92.41 8.73,64.4 -27.98,124.35 -85.43,147.92 42.96,37.22 73.22,89.46 81.45,150.22 12.01,88.59 -25.68,172.28 -91.47,223.52 55.9,52.9 94.83,124.48 105.97,206.69 18.45,136.13 -44.19,264.5 -150.78,336.56 33.19,30.6 56.33,72.47 62.87,120.69 14.9,109.97 -62.17,211.2 -172.14,226.09 -4.4,0.6 -8.76,0.8 -13.12,1.11 12.79,30.79 21.9,63.71 26.6,98.31 22.5,166.11 -62.3,321.93 -201.109,397.79 12.477,38.4 21.891,78.35 27.499,119.78 50.54,373.04 -210.897,716.43 -583.944,766.98 -373.0512,50.54 -716.442,-210.9 -766.981,-583.95 -50.547,-373.05 210.895,-716.44 583.945,-766.98 36.059,-4.89 71.825,-6.79 107.09,-6.02 L -92.0977,1372.95 1433.36,-458.16 l 5633.62,-437.11 197.04,672.309 c 168.98,3.641 314.92,129.6797 338.32,302.4415" /><path
           inkscape:connector-curvature="0"
           id="path454"
           style="fill:#93f5e5;fill-opacity:1;fill-rule:nonzero;stroke:none"
           d="m 3444.56,2828.56 c -27.58,61.65 -59,121.56 -94.01,179.3 -36.21,59.73 -77.58,124.13 -84.9,191.1 l -146.87,-121.17 c -1.73,-1.12 -3.33,-2.38 -4.69,-3.87 -38.81,-42.66 91.29,-224.22 290.58,-405.55 18.37,-16.71 36.69,-32.83 54.84,-48.31 10.33,22.11 17.61,45.23 19.35,69.75 3.4,48.03 -14.64,94.81 -34.3,138.75" /><path
           inkscape:connector-curvature="0"
           id="path456"
           style="fill:#5dc2ae;fill-opacity:1;fill-rule:nonzero;stroke:none"
           d="m 3835.79,2417.29 c 1.36,1.5 2.46,3.21 3.41,5.04 l 417.91,616.92 -563.54,512.72 -427.92,-353.01 c 7.32,-66.97 48.69,-131.37 84.9,-191.1 35.01,-57.74 66.43,-117.65 94.01,-179.3 19.66,-43.94 37.7,-90.72 34.3,-138.75 -1.74,-24.52 -9.02,-47.64 -19.35,-69.75 178.73,-152.4 341.05,-241.49 376.28,-202.77" /><path
           inkscape:connector-curvature="0"
           id="path458"
           style="fill:#164377;fill-opacity:1;fill-rule:nonzero;stroke:none"
           d="m 4233.22,4748.95 c -253.78,-311.84 -521.15,-614.02 -847.35,-846.76 -130.52,-93.12 -271.12,-175.03 -424.63,-221.3 -106.95,-32.24 -220.87,-46.24 -331.54,-34.54 l -204.72,-239.52 c 170.77,-155.36 413.16,-182.63 586.81,-64.8 l 1585.39,1075.77 -363.96,331.15" /><path
           inkscape:connector-curvature="0"
           id="path460"
           style="fill:#105697;fill-opacity:1;fill-rule:nonzero;stroke:none"
           d="m 2961.24,3680.89 c 153.52,46.27 294.11,128.18 424.62,221.3 326.22,232.74 593.58,534.92 847.36,846.76 l -26.75,24.33 c -190.64,173.44 -473.17,164.3 -629.39,-18.49 L 2629.7,3646.35 c 110.67,-11.7 224.59,2.3 331.54,34.54" /><path
           inkscape:connector-curvature="0"
           id="path462"
           style="fill:#105697;fill-opacity:1;fill-rule:nonzero;stroke:none"
           d="m 5081.46,2933.69 c 164.02,154.84 328.05,309.67 492.08,464.5 -17.03,97.46 -66.89,192.16 -148.88,266.75 l -390.71,355.48 -889.93,-1621.98 c 140.22,6.48 280.8,50.73 405.65,116.8 200.01,105.85 367.23,263.12 531.79,418.45" /><path
           inkscape:connector-curvature="0"
           id="path464"
           style="fill:#164377;fill-opacity:1;fill-rule:nonzero;stroke:none"
           d="m 5573.54,3398.19 c -164.03,-154.83 -328.06,-309.66 -492.08,-464.5 -164.56,-155.33 -331.78,-312.6 -531.79,-418.45 -124.85,-66.07 -265.43,-110.32 -405.65,-116.8 l -31.67,-57.73 c -100.94,-183.97 -50.97,-422.72 119.79,-578.08 L 5465.56,3036.6 c 95.32,98.46 130.53,232.44 107.98,361.59" /><path
           inkscape:connector-curvature="0"
           id="path466"
           style="fill:#93f5e5;fill-opacity:1;fill-rule:nonzero;stroke:none"
           d="m 3616.82,3185.22 c -123.3,135.48 -205.65,266.18 -224.67,355.77 l -93.07,-123.67 c -35,-44.67 1.05,-144.58 84.96,-262.75 36.89,13.56 75.2,23.21 114.62,27.29 39.13,4.05 78.67,3.65 118.16,3.36" /><path
           inkscape:connector-curvature="0"
           id="path468"
           style="fill:#5dc2ae;fill-opacity:1;fill-rule:nonzero;stroke:none"
           d="m 4139.41,2780.6 c -10.26,4.7 -20.74,9.75 -31.42,15.15 -21.34,10.8 -43.46,22.97 -66.17,36.44 -22.71,13.46 -46.01,28.23 -69.74,44.2 -71.16,47.89 -146.07,106.62 -219.98,173.85 -49.05,44.64 -94.41,90.07 -135.28,134.98 -39.49,0.29 -79.03,0.69 -118.16,-3.36 -39.42,-4.08 -77.73,-13.73 -114.62,-27.29 57.16,-80.49 136.52,-169.44 230.78,-255.21 232.67,-211.68 476.19,-331.2 545.42,-265.53 l 114.34,104.3 c -15.14,1.74 -31.58,5.13 -49.15,10.07 -26.34,7.41 -55.22,18.3 -86.02,32.4" /><path
           inkscape:connector-curvature="0"
           id="path470"
           style="fill:#ffffff;fill-opacity:1;fill-rule:nonzero;stroke:none"
           d="m 3777.2,3196.39 c 107.91,24.17 198.12,95.81 283.15,166.51 545.71,453.82 1050.92,956.21 1508.5,1498.77 -31.91,25.44 -63.68,52.42 -95.03,80.94 -171.17,155.74 -298.76,328.23 -368.7,473.35 -382.15,-240.37 -703.57,-533.72 -944.87,-854.34 l -768.1,-1020.63 c 19.02,-89.59 101.37,-220.29 224.67,-355.76 54,-0.4 107.88,-0.59 160.38,11.16" /><path
           inkscape:connector-curvature="0"
           id="path472"
           style="fill:#d2d3d3;fill-opacity:1;fill-rule:nonzero;stroke:none"
           d="m 5979.81,4620.14 c -123.4,45.71 -268.61,128.03 -410.96,241.53 -457.58,-542.56 -962.79,-1044.95 -1508.5,-1498.77 -85.03,-70.7 -175.24,-142.34 -283.15,-166.51 -52.5,-11.75 -106.38,-11.56 -160.38,-11.16 40.87,-44.92 86.23,-90.35 135.29,-134.98 73.9,-67.24 148.81,-125.97 219.97,-173.86 23.73,-15.97 47.03,-30.74 69.74,-44.2 22.71,-13.47 44.82,-25.64 66.17,-36.44 10.68,-5.4 21.16,-10.45 31.42,-15.15 30.81,-14.1 59.68,-24.99 86.02,-32.4 17.57,-4.94 34.01,-8.33 49.15,-10.06 l 943.71,860.84 c 296.47,270.44 558.23,618.07 761.52,1021.16" /><path
           inkscape:connector-curvature="0"
           id="path474"
           style="fill:#93f5e5;fill-opacity:1;fill-rule:nonzero;stroke:none"
           d="m 5568.85,4861.67 c 291.06,345.11 562.84,706.48 813.41,1082.02 -470.9,-108.01 -903.07,-292.44 -1277.14,-527.73 69.94,-145.13 197.53,-317.62 368.7,-473.35 31.35,-28.52 63.12,-55.5 95.03,-80.94" /><path
           inkscape:connector-curvature="0"
           id="path476"
           style="fill:#5dc2ae;fill-opacity:1;fill-rule:nonzero;stroke:none"
           d="m 5979.81,4620.14 c 199.43,395.43 342.54,844.13 405.48,1324.27 l 0,0.01 c -1.01,-0.24 -2.02,-0.5 -3.03,-0.73 -250.57,-375.54 -522.35,-736.91 -813.41,-1082.02 142.35,-113.5 287.56,-195.82 410.96,-241.53" /><path
           inkscape:connector-curvature="0"
           id="path478"
           style="fill:#c9c9c9;fill-opacity:1;fill-rule:nonzero;stroke:none"
           d="m 4543.08,3786.74 c -3.06,2.65 -6.11,5.36 -9.12,8.1 -131.12,119.3 -186.34,290.86 -162.83,454.03 14.15,98.15 56.78,193.27 128.54,272.14 101.44,111.5 240.65,168.12 380.38,168.12 123.44,0 247.29,-44.21 345.79,-133.83 14.02,-12.76 27.18,-26.12 39.46,-39.99 -230.3,-252.92 -471.32,-496.1 -722.22,-728.57" /><path
           inkscape:connector-curvature="0"
           id="path480"
           style="fill:#a6a6a6;fill-opacity:1;fill-rule:nonzero;stroke:none"
           d="m 4879.75,3661.01 c -119.67,0.01 -239.71,41.54 -336.67,125.73 250.9,232.47 491.92,475.65 722.22,728.57 73.04,-82.56 115.21,-183.63 125.88,-287.62 14.4,-140.34 -28.63,-285.99 -131.05,-398.56 -101.44,-111.5 -240.65,-168.13 -380.38,-168.12" /><path
           inkscape:connector-curvature="0"
           id="path482"
           style="fill:#93f5e5;fill-opacity:1;fill-rule:nonzero;stroke:none"
           d="m 4956.82,4098.33 c 176.58,27.42 335.21,130.69 453.42,265.06 -12.46,121.47 -67.91,238.97 -165.34,327.61 -209.99,191.06 -535.11,175.71 -726.16,-34.29 -71.77,-78.87 -114.4,-173.99 -128.54,-272.14 19.62,-37.62 41.01,-74.07 67.35,-107.26 115.18,-145.1 316.2,-207.41 499.27,-178.98" /><path
           inkscape:connector-curvature="0"
           id="path484"
           style="fill:#5dc2ae;fill-opacity:1;fill-rule:nonzero;stroke:none"
           d="m 5410.24,4363.39 c -118.21,-134.37 -276.84,-237.64 -453.42,-265.06 -183.07,-28.43 -384.09,33.88 -499.27,178.98 -26.34,33.19 -47.73,69.64 -67.35,107.26 -23.52,-163.17 31.7,-334.73 162.82,-454.03 209.99,-191.06 535.11,-175.71 726.17,34.29 102.42,112.57 145.45,258.22 131.05,398.56" /><path
           inkscape:connector-curvature="0"
           id="path486"
           style="fill:#ffffff;fill-opacity:1;fill-rule:nonzero;stroke:none"
           d="m 5234.52,4530.21 -669.78,1.96 c -15.35,-23.11 -27.98,-47.42 -38,-72.5 l 745.28,-2.19 c -9.9,25.21 -22.36,49.6 -37.5,72.73" /><path
           inkscape:connector-curvature="0"
           id="path488"
           style="fill:#182b3a;fill-opacity:1;fill-rule:nonzero;stroke:none"
           d="m 5272.02,4457.48 -745.28,2.19 c -13.65,-34.15 -22.36,-69.72 -26.24,-105.69 l 797.17,-2.34 c -3.69,36.09 -12.26,71.72 -25.65,105.84" /><path
           inkscape:connector-curvature="0"
           id="path490"
           style="fill:#182b3a;fill-opacity:1;fill-rule:nonzero;stroke:none"
           d="m 5168.72,4607.27 c -163.75,148.98 -417.27,137.01 -566.25,-26.74 -14,-15.38 -26.57,-31.56 -37.73,-48.36 l 669.78,-1.96 c -18.18,27.75 -40.12,53.69 -65.8,77.06" /><path
           inkscape:connector-curvature="0"
           id="path492"
           style="fill:#ffffff;fill-opacity:1;fill-rule:nonzero;stroke:none"
           d="m 5122.9,3978.31 -449.74,1.32 c 136.14,-93.08 315.13,-92.14 449.74,-1.32" /><path
           inkscape:connector-curvature="0"
           id="path494"
           style="fill:#182b3a;fill-opacity:1;fill-rule:nonzero;stroke:none"
           d="m 5195.46,4041.01 c 30.28,33.28 53.8,70.31 70.86,109.38 l -735.64,2.16 c 21.91,-51.08 54.73,-98.43 98.52,-138.28 14.02,-12.75 28.74,-24.24 43.96,-34.64 l 449.74,-1.32 c 26.05,17.57 50.47,38.43 72.56,62.7" /><path
           inkscape:connector-curvature="0"
           id="path496"
           style="fill:#ffffff;fill-opacity:1;fill-rule:nonzero;stroke:none"
           d="m 5297.67,4351.64 -797.17,2.34 c -7.34,-68.2 2.85,-137.72 30.18,-201.43 l 735.64,-2.16 c 27.91,63.92 38.28,133.36 31.35,201.25" /><path
           inkscape:connector-curvature="0"
           id="path498"
           style="fill:#73a6e6;fill-opacity:1;fill-rule:nonzero;stroke:none"
           d="m 9103.7,2055.17 c -0.07,-94.37 -76.63,-170.81 -171,-170.75 -94.37,0.08 -170.82,76.64 -170.75,171.02 0.08,94.36 76.64,170.81 171.02,170.74 94.36,-0.08 170.81,-76.64 170.73,-171.01" /><path
           inkscape:connector-curvature="0"
           id="path500"
           style="fill:#73a6e6;fill-opacity:1;fill-rule:nonzero;stroke:none"
           d="m 7131.3,2160.73 c -0.02,-30.77 -24.99,-55.69 -55.76,-55.67 -30.77,0.03 -55.71,24.99 -55.68,55.76 0.03,30.78 24.99,55.7 55.77,55.67 30.77,-0.02 55.7,-24.98 55.67,-55.76" /><path
           inkscape:connector-curvature="0"
           id="path502"
           style="fill:#73a6e6;fill-opacity:1;fill-rule:nonzero;stroke:none"
           d="m 2426.91,4801.86 c -0.04,-49.24 -39.99,-89.12 -89.22,-89.08 -49.24,0.04 -89.13,39.98 -89.09,89.22 0.04,49.24 39.99,89.12 89.23,89.08 49.24,-0.04 89.12,-39.98 89.08,-89.22" /><path
           inkscape:connector-curvature="0"
           id="path504"
           style="fill:#73a6e6;fill-opacity:1;fill-rule:nonzero;stroke:none"
           d="m 1630.51,5984.1 c -0.06,-77.72 -63.12,-140.68 -140.83,-140.61 -77.72,0.05 -140.68,63.11 -140.62,140.83 0.07,77.72 63.12,140.67 140.84,140.61 77.72,-0.06 140.67,-63.11 140.61,-140.83" /><path
           inkscape:connector-curvature="0"
           id="path506"
           style="fill:#5d8dcf;fill-opacity:1;fill-rule:nonzero;stroke:none"
           d="m 6153.11,1906.08 c 2.83,-114.63 -87.82,-209.87 -202.46,-212.7 -114.64,-2.83 -209.87,87.8 -212.71,202.45 -2.83,114.64 87.81,209.87 202.46,212.71 114.64,2.83 209.87,-87.81 212.71,-202.46" /><path
           inkscape:connector-curvature="0"
           id="path508"
           style="fill:#5d8dcf;fill-opacity:1;fill-rule:nonzero;stroke:none"
           d="m 9666.16,696.191 c -2.55,102.938 78.85,188.461 181.79,191 102.95,2.551 188.45,-78.839 191.05,-181.793 2.5,-102.937 -78.89,-188.457 -181.84,-191.007 -102.94,-2.532 -188.46,78.847 -191,181.8" /><path
           inkscape:connector-curvature="0"
           id="path510"
           style="fill:#5d8dcf;fill-opacity:1;fill-rule:nonzero;stroke:none"
           d="m 2850.78,2524.52 c 1.33,-53.82 -41.21,-98.51 -95.02,-99.84 -53.82,-1.33 -98.52,41.21 -99.85,95.03 -1.33,53.81 41.22,98.5 95.03,99.84 53.81,1.33 98.51,-41.22 99.84,-95.03" /><path
           inkscape:connector-curvature="0"
           id="path512"
           style="fill:#5d8dcf;fill-opacity:1;fill-rule:nonzero;stroke:none"
           d="m 4217.8,2002.39 c 0.75,-30.42 -23.3,-55.68 -53.71,-56.43 -30.42,-0.75 -55.69,23.29 -56.44,53.71 -0.75,30.41 23.3,55.68 53.71,56.43 30.42,0.76 55.69,-23.3 56.44,-53.71" /><path
           inkscape:connector-curvature="0"
           id="path514"
           style="fill:#5d8dcf;fill-opacity:1;fill-rule:nonzero;stroke:none"
           d="m 2735.61,3020.32 c 0.75,-30.41 -23.3,-55.67 -53.72,-56.42 -30.41,-0.76 -55.67,23.29 -56.43,53.71 -0.75,30.41 23.3,55.67 53.71,56.42 30.42,0.76 55.68,-23.29 56.44,-53.71" /><path
           inkscape:connector-curvature="0"
           id="path516"
           style="fill:#27528c;fill-opacity:1;fill-rule:nonzero;stroke:none"
           d="m 1553.22,5022.45 c 2.08,-84.23 -64.51,-154.19 -148.73,-156.27 -84.23,-2.08 -154.2,64.51 -156.28,148.74 -2.08,84.22 64.51,154.19 148.74,156.27 84.23,2.08 154.19,-64.51 156.27,-148.74" /><path
           inkscape:connector-curvature="0"
           id="path518"
           style="fill:#27528c;fill-opacity:1;fill-rule:nonzero;stroke:none"
           d="m 1729.03,3568.62 c 0.86,-35.09 -26.88,-64.25 -61.97,-65.11 -35.1,-0.87 -64.25,26.88 -65.12,61.97 -0.87,35.1 26.88,64.25 61.98,65.12 35.09,0.86 64.24,-26.88 65.11,-61.98" /><path
           inkscape:connector-curvature="0"
           id="path520"
           style="fill:#27528c;fill-opacity:1;fill-rule:nonzero;stroke:none"
           d="m 7009.42,1045.56 c 2.08,-84.228 -64.51,-154.189 -148.74,-156.271 -84.22,-2.078 -154.19,64.512 -156.27,148.731 -2.09,84.23 64.51,154.2 148.73,156.28 84.23,2.08 154.2,-64.51 156.28,-148.74" /><path
           inkscape:connector-curvature="0"
           id="path522"
           style="fill:#27528c;fill-opacity:1;fill-rule:nonzero;stroke:none"
           d="m 7934.34,1526.21 c 0.75,-30.42 -23.3,-55.68 -53.71,-56.43 -30.42,-0.76 -55.69,23.3 -56.44,53.71 -0.75,30.42 23.3,55.68 53.71,56.43 30.42,0.75 55.68,-23.3 56.44,-53.71" /><path
           inkscape:connector-curvature="0"
           id="path524"
           style="fill:#27528c;fill-opacity:1;fill-rule:nonzero;stroke:none"
           d="m 8603.11,1051.03 c 1.03,-42.12 -32.26,-77.1 -74.38,-78.139 -42.11,-1.039 -77.09,32.259 -78.13,74.369 -1.04,42.11 32.25,77.1 74.37,78.13 42.11,1.05 77.09,-32.26 78.14,-74.36" /><path
           inkscape:connector-curvature="0"
           id="path526"
           style="fill:#27528c;fill-opacity:1;fill-rule:nonzero;stroke:none"
           d="m 2354.51,2100.47 c -2.89,116.98 -100.07,209.47 -217.05,206.58 -116.98,-2.89 -209.47,-100.07 -206.58,-217.04 2.89,-116.98 100.07,-209.47 217.04,-206.58 116.99,2.89 209.48,100.06 206.59,217.04" /><path
           inkscape:connector-curvature="0"
           id="path528"
           style="fill:#27528c;fill-opacity:1;fill-rule:nonzero;stroke:none"
           d="m 3086.51,1296.22 c 1.27,-51.47 -39.43,-94.23 -90.89,-95.51 -51.48,-1.27 -94.23,39.43 -95.51,90.9 -1.27,51.48 39.43,94.23 90.9,95.5 51.47,1.28 94.23,-39.42 95.5,-90.89" /><path
           inkscape:connector-curvature="0"
           id="path530"
           style="fill:#27528c;fill-opacity:1;fill-rule:nonzero;stroke:none"
           d="m 3622.22,1402.71 c -0.99,39.77 -34.03,71.22 -73.8,70.24 -39.77,-0.99 -71.22,-34.02 -70.24,-73.8 0.99,-39.78 34.02,-71.22 73.8,-70.23 39.77,0.97 71.22,34.02 70.24,73.79" /></g></g></g></svg>