<?xml version="1.0" encoding="UTF-8" standalone="no"?>
<svg
   xmlns:dc="http://purl.org/dc/elements/1.1/"
   xmlns:cc="http://creativecommons.org/ns#"
   xmlns:rdf="http://www.w3.org/1999/02/22-rdf-syntax-ns#"
   xmlns:svg="http://www.w3.org/2000/svg"
   xmlns="http://www.w3.org/2000/svg"
   xmlns:sodipodi="http://sodipodi.sourceforge.net/DTD/sodipodi-0.dtd"
   xmlns:inkscape="http://www.inkscape.org/namespaces/inkscape"
   version="1.1"
   width="600"
   height="600"
   viewBox="0 0 600 600"
   enable-background="new 0 0 1024.00 768.00"
   xml:space="preserve"
   id="svg2"
   inkscape:version="0.91 r13725"
   sodipodi:docname="pwa.svg"><metadata
     id="metadata26"><rdf:RDF><cc:Work
         rdf:about=""><dc:format>image/svg+xml</dc:format><dc:type
           rdf:resource="http://purl.org/dc/dcmitype/StillImage" /><dc:title></dc:title></cc:Work></rdf:RDF></metadata><defs
     id="defs24" /><sodipodi:namedview
     pagecolor="#ffffff"
     bordercolor="#666666"
     borderopacity="1"
     objecttolerance="10"
     gridtolerance="10"
     guidetolerance="10"
     inkscape:pageopacity="0"
     inkscape:pageshadow="2"
     inkscape:window-width="1366"
     inkscape:window-height="710"
     id="namedview22"
     showgrid="false"
     borderlayer="true"
     inkscape:zoom="0.30729167"
     inkscape:cx="512"
     inkscape:cy="384"
     inkscape:window-x="0"
     inkscape:window-y="0"
     inkscape:window-maximized="1"
     inkscape:current-layer="svg2" /><rect
     x="5.02384e-06"
     y="-168.00018"
     width="1024"
     height="768"
     id="rect4"
     style="fill:#ffffff;fill-opacity:1;stroke-linejoin:round" /><rect
     style="opacity:1;fill:#ffffff;fill-opacity:1;fill-rule:evenodd;stroke:#ffffff;stroke-width:1.27842474;stroke-opacity:1"
     id="rect3354"
     width="598.72162"
     height="598.72156"
     x="0.63921237"
     y="-599.36078"
     transform="scale(1,-1)" /><g
     id="g6"
     transform="matrix(0.66242038,0,0,0.68983822,-36.85415,35.102157)"><g
       id="g8"><path
         d="m 256.97,94.0769 510.06,0 L 721.492,614.398 514.672,673.923 303.627,614.413 256.97,94.0769 Z"
         id="path10"
         inkscape:connector-curvature="0"
         style="fill:#0096ff;fill-opacity:1;stroke-width:0.2;stroke-linejoin:round" /><path
         d="m 513.4,136.908 208.501,0 L 681.297,582.237 513.823,629.18 513.4,136.908 Z"
         id="path12"
         inkscape:connector-curvature="0"
         style="fill:#ffffff;fill-opacity:0.30196102;stroke-width:0.2;stroke-linejoin:round" /></g><g
       id="g14"><path
         d="m 697.24,486.918 22.678,-57.346 65.478,0 -31.077,-86.992 38.866,-98.281 111.315,295.554 -82.091,0 -19.024,-52.935 -106.145,0 z"
         id="path16"
         inkscape:connector-curvature="0"
         style="fill:#3d3d3d;fill-opacity:1;stroke-linejoin:round" /><path
         d="m 627.205,523.702 119.165,-295.555 -79.003,0 -81.517,190.994 -57.967,-190.993 -60.724,0 -62.24,190.993 -43.893,-87.032 -39.722,122.376 40.329,69.217 77.749,0 56.243,-171.281 53.625,171.281 77.955,0 z"
         id="path18"
         inkscape:connector-curvature="0"
         style="fill:#3d3d3d;fill-opacity:1;stroke-linejoin:round" /><path
         d="m 194.491,422.243 48.662,0 c 14.74,0 27.866,-1.645 39.378,-4.935 l 12.584,-38.771 35.172,-108.358 c -2.68,-4.248 -5.74,-8.264 -9.179,-12.048 -18.058,-19.989 -44.48,-29.983 -79.265,-29.983 l -122.343,0 0,295.554 74.991,0 0,-101.459 z m 64.411,-126.1 c 7.054,7.099 10.581,16.599 10.581,28.501 0,11.993 -3.102,21.504 -9.305,28.535 -6.801,7.812 -19.323,11.717 -37.565,11.717 l -28.122,0 0,-79.402 28.329,0 c 17.001,0 29.029,3.549 36.082,10.649 z"
         id="path20"
         inkscape:connector-curvature="0"
         style="fill:#3d3d3d;fill-opacity:1;stroke-linejoin:round" /></g></g></svg>