<svg xmlns="http://www.w3.org/2000/svg" width="600" height="600"><defs><clipPath clipPathUnits="userSpaceOnUse" id="a"><path d="M0 500h500V0H0v500z"/></clipPath><clipPath clipPathUnits="userSpaceOnUse" id="b"><path d="M288.783 284.245h110.262v-71.822H288.783v71.822z"/></clipPath><clipPath clipPathUnits="userSpaceOnUse" id="c"><path d="M292.584 292.261H413.55v-76.727H292.584v76.727z"/></clipPath><clipPath clipPathUnits="userSpaceOnUse" id="d"><path d="M261.09 261.501h15.726v-16.417H261.09v16.417z"/></clipPath></defs><path fill="#fff" fill-rule="evenodd" stroke="#fff" stroke-width="1.995" d="M.998.997h598.005v598.005H.996z"/><g clip-path="url(#a)" transform="matrix(3.08016 0 0 -3.11208 -738.331 1055.345)"><path d="M403.549 193.273c7.74 4.73 10.18 14.842 5.449 22.582a16.33 16.33 0 0 1-3.895 4.354 61.36 61.36 0 0 0 6.756 8 77.33 77.33 0 0 0 3.594 3.36c.486-.408.96-.831 1.424-1.273l4.035 2.466a4.38 4.38 0 0 0 6.022-1.453l3.998-6.541a4.38 4.38 0 0 0-1.453-6.021l-4.035-2.466a31.593 31.593 0 0 0 1.292-9.324l4.56-1.273a4.38 4.38 0 0 0 3.042-5.396l-2.06-7.385a4.382 4.382 0 0 0-5.397-3.042l-4.556 1.27a31.541 31.541 0 0 0-4.336-5.737l2.467-4.034a4.381 4.381 0 0 0-1.453-6.023l-6.541-3.998a4.382 4.382 0 0 0-6.022 1.455l-2.466 4.034a31.485 31.485 0 0 0-7.177-1.238 50.255 50.255 0 0 0-1.802 15.289 16.323 16.323 0 0 1 8.554 2.394" fill="#489aff"/><path d="M392.117 174.215H251.115a6.928 6.928 0 0 0-6.928 6.928v96.174a6.928 6.928 0 0 0 6.928 6.928h141.002a6.928 6.928 0 0 0 6.928-6.928v-96.174a6.928 6.928 0 0 0-6.928-6.928" fill="#e3eaff"/><path d="M391.517 175.662H251.716a5.492 5.492 0 0 0-5.491 5.491v96.153a5.491 5.491 0 0 0 5.49 5.491h139.802a5.49 5.49 0 0 0 5.49-5.49v-96.154a5.49 5.49 0 0 0-5.49-5.49" fill="#6db8ff"/><path d="M387.103 185.116H256.129a3.383 3.383 0 0 0-3.382 3.383v85.873a3.382 3.382 0 0 0 3.383 3.383h130.975a3.383 3.383 0 0 0 3.384-3.383V188.5a3.384 3.384 0 0 0-3.384-3.383" fill="#2f6dff"/><path d="M240.427 179.92a5.743 5.743 0 0 1-.722-2.751 5.807 5.807 0 0 1 5.807-5.807H397.72c3.207 0 5.807 2.6 5.807 5.807a5.732 5.732 0 0 1-.723 2.75H240.427z" fill="#e3eaff"/><path d="M240.427 174.418c.983-1.812 2.88-3.056 5.085-3.056H397.72c2.207 0 4.102 1.244 5.084 3.056H240.427z" fill="#c8d6f2"/><g clip-path="url(#b)" opacity=".2"><path d="M392.117 284.245H288.782v-69.056a2.765 2.765 0 0 1 2.766-2.765h107.497v64.893a6.928 6.928 0 0 1-6.928 6.928" fill="#424261"/></g><g clip-path="url(#c)" opacity=".21"><path d="M410.785 215.534H295.35a2.764 2.764 0 0 0-2.765 2.765v71.197a2.765 2.765 0 0 0 2.765 2.765h115.436a2.766 2.766 0 0 0 2.766-2.765V218.3a2.765 2.765 0 0 0-2.766-2.765" fill="#e3eaff"/></g><path d="M415.624 220.718H300.187a2.765 2.765 0 0 0-2.764 2.766v71.196a2.765 2.765 0 0 0 2.764 2.766h115.437a2.765 2.765 0 0 0 2.765-2.766v-71.196a2.765 2.765 0 0 0-2.765-2.766" fill="#f9fbfc"/><g clip-path="url(#d)" opacity=".2"><path d="M275.088 245.084h-12.27c-.955 0-1.728.774-1.728 1.729v12.96c0 .955.773 1.728 1.728 1.728h12.27c.954 0 1.728-.773 1.728-1.728v-12.96c0-.955-.774-1.729-1.728-1.729" fill="#424261"/></g><path d="M274.18 221.236h-12.27c-.954 0-1.727.774-1.727 1.73v12.96c0 .954.773 1.727 1.728 1.727h12.27c.954 0 1.728-.773 1.728-1.728v-12.96c0-.955-.774-1.729-1.728-1.729m-.001-23.329h-12.27c-.954 0-1.727.774-1.727 1.73v12.96c0 .954.773 1.727 1.728 1.727h12.27c.954 0 1.728-.773 1.728-1.728v-12.96c0-.955-.774-1.729-1.728-1.729" fill="#6db8ff"/><path d="M271.481 207.924a3.739 3.739 0 0 1-7.477 0s-.526-3.96 3.74-7.107c4.263 3.148 3.737 7.107 3.737 7.107" fill="#9570ee"/><path d="M267.963 205.226a2.708 2.708 0 0 0-2.92 2.918 2.718 2.718 0 0 0 2.48 2.479 2.709 2.709 0 0 0 2.919-2.918 2.718 2.718 0 0 0-2.48-2.48" fill="#f9fbfc"/><path d="M272.84 229.662a5.172 5.172 0 1 0-10.343 0 5.172 5.172 0 0 0 10.344 0" fill="#9570ee"/><path d="M271.84 229.662a4.17 4.17 0 1 0-8.34-.001 4.17 4.17 0 0 0 8.34.001" fill="#f9fbfc"/><path d="M267.67 233.832a4.172 4.172 0 0 0 3.998-2.981.167.167 0 1 1 .32.091 4.504 4.504 0 0 1-8.636 0 .165.165 0 0 1 .16-.213c.074 0 .138.05.16.122a4.17 4.17 0 0 0 3.998 2.981" fill="#bb87ee"/><path d="M272.296 229.528a.496.496 0 0 1-.494-.427 4.17 4.17 0 0 0-8.264 0 .497.497 0 0 1-.495.427.5.5 0 0 1-.497-.562 5.173 5.173 0 0 1 5.124-4.476 5.172 5.172 0 0 1 5.123 4.476.5.5 0 0 1-.497.562" fill="#7f57ee"/><path d="M271.84 229.662a4.17 4.17 0 1 0-8.34-.001 4.17 4.17 0 0 0 8.34.001" fill="#f9fbfc"/><path d="M271.734 228.316a.168.168 0 0 1-.157-.11 4.17 4.17 0 0 0-7.816 0 .168.168 0 0 1-.157.11.168.168 0 0 1-.157-.226 4.505 4.505 0 0 1 8.445 0 .169.169 0 0 1-.158.226m-4.076.979a.2.2 0 0 0-.2.2v2.937a.2.2 0 0 0 .4 0v-2.937a.2.2 0 0 0-.2-.2" fill="#9570ee"/><path d="M267.514 229.606a.2.2 0 0 0 .282.023l1.812-1.53a.2.2 0 0 0 .023-.282.199.199 0 0 0-.282-.023l-1.811 1.53a.2.2 0 0 0-.024.282" fill="#9570ee"/><path d="M267.703 233.148h-.15v.4h.15v-.4zm0-7.306h-.15v.4h.15v-.4zm-3.528 3.778h-.4v.15h.4v-.15zm7.306 0h-.4v.15h.4v-.15zm-6.241 2.57l-.107-.106-.284.283.107.106.283-.283zm5.166-5.167l-.106-.106-.284.283.107.106.283-.283zm-5.273.284l.106-.106-.283-.284-.106.107.283.283zm5.167 5.167l.106-.106-.283-.284-.106.107.283.283z" fill="#ced6ff"/><path d="M274.18 245.602h-12.27c-.954 0-1.727.773-1.727 1.73v12.96c0 .954.773 1.728 1.728 1.728h12.27c.954 0 1.728-.774 1.728-1.728v-12.96c0-.957-.774-1.73-1.728-1.73" fill="#6db8ff"/><path d="M259.427 247.287l1.296.907.583 2.14-.648.13-.388-.779.388 3.694-.648-.13-.647-3.564-.78-1.685.714-.453m7.798-4.105l.173 1.556 1.9 1.9.433-.604-.692-.778 3.629.864v-.778l-3.37-1.296-.69-1.21-1.383.346z" fill="#f7d3a9"/><path d="M243.435 204.992l7.068-34.577 5.35.573-3.63 1.337 1.337.382-1.91 32.285h-8.215z" fill="#544db8"/><path d="M254.707 205.565s8.979-8.405 7.641-18.53c-1.529-8.023-4.776-11.08-4.776-11.08l-.955.19 1.481-3.916-4.299 4.585s5.302 7.308 2.006 14.9c-3.295 7.595-10.459 10.318-10.459 10.318s6.161 5.587 6.59 5.444c.43-.143 2.771-1.911 2.771-1.911" fill="#544db8"/><path d="M258.527 248.595s-14.757-17.91-16.477-21.491c0 0-.716-1.29-.716-5.015 0-3.724 1.29-17.48 1.29-17.48l15.044-.86s-4.872 16.765-5.015 17.195c-.144.429-2.579 3.008-4.872 3.582l12.608 22.78-1.862 1.289z" fill="#ff8b40"/><path d="M249.183 226.255s.627-1.86.973-2.984c0 0-3.071.065-4.152 1.492l1.146 2.746 2.033-1.254z" fill="#f7d3a9"/><path d="M251.518 232.067s.908-5.289 0-6.49c-.908-1.203-4.021.841-5.32 2.763-1.297 1.924-1.556 6.251.65 6.612 2.205.361 4.15-.96 4.67-2.885" fill="#f7d3a9"/><path d="M250.122 222.276s11.832 7.442 12.786 8.97c.954 1.526 3.626 12.881 3.626 12.881l2.29-.573s-1.336-12.69-1.718-14.026c-.382-1.336-12.023-13.74-14.694-13.74-2.672 0-3.626 3.435-2.29 6.488" fill="#ff8b40"/><path d="M245.148 234.716s1.555 2.16 4.32 1.642c2.765-.52 3.456.086 3.456.086s-.604-3.024-2.505-3.715c-1.9-.692-2.42-.52-2.42-.52s1.037-1.036 1.296-1.813c.26-.778-.864.95-1.296.345-.432-.604 0-1.901.864-1.814.865.086.346-.605 0-1.296-.345-.691-.864-1.556-1.382-1.296-.519.259-2.333 1.296-3.024 3.456-.69 2.16-.864 4.234.691 4.925" fill="#544db8"/><path d="M339.848 228.235H306.15c-.716 0-1.296.58-1.296 1.296v58.582c0 .716.58 1.296 1.296 1.296h33.698c.716 0 1.296-.58 1.296-1.296v-58.582c0-.716-.58-1.296-1.296-1.296" fill="#e3eaff"/><path d="M333.54 279.3h-21.429c-.572 0-1.036.464-1.036 1.037v3.11c0 .573.464 1.038 1.036 1.038h21.429c.572 0 1.037-.465 1.037-1.038v-3.11c0-.573-.465-1.037-1.037-1.037m-14.602-28.815h-4.667a1.986 1.986 0 1 0 0 3.973h4.667a1.987 1.987 0 0 0 0-3.973" fill="#6db8ff"/><path d="M332.417 250.485h-4.667a1.986 1.986 0 1 0 0 3.973h4.667a1.987 1.987 0 1 0 0-3.973" fill="#9570ee"/><path d="M335.786 270.142h-25.229v3.975h25.229v-3.975zm0-6.74h-25.229v3.975h25.229v-3.975z" fill="#f9fbfc"/><path d="M330.516 259.989H316v.908h14.516v-.908z" fill="#cdd4ff"/><path d="M415.927 239.555h-45.362a5.055 5.055 0 1 0 0 10.109h45.362a5.055 5.055 0 0 0 0-10.11" fill="#9570ee"/><path d="M376.656 282.411h-28.255a4.147 4.147 0 1 0 0 8.294h28.255a4.147 4.147 0 1 0 0-8.294" fill="#e3eaff"/><path d="M355.142 286.558a1.297 1.297 0 1 0-2.595.002 1.297 1.297 0 0 0 2.595-.002" fill="#ffc240"/><path d="M364.041 286.558a1.296 1.296 0 1 0-2.593 0 1.296 1.296 0 0 0 2.593 0" fill="#90c240"/><path d="M372.249 286.558a1.296 1.296 0 1 0-2.593 0 1.296 1.296 0 0 0 2.593 0" fill="#eb4f24"/><path d="M271.022 252.801a3.156 3.156 0 1 0-6.312 0 3.156 3.156 0 0 0 6.313 0" fill="#fff"/><path d="M267.913 250.473a2.32 2.32 0 1 0 0 4.638 2.32 2.32 0 0 0 0-4.638m3.225 6.14h-.556l-.8 1.127a.334.334 0 0 1-.274.142h-3.19a.336.336 0 0 1-.274-.142l-.799-1.126h-.557a1.578 1.578 0 0 1-1.573-1.573v-4.577c0-.865.708-1.573 1.573-1.573h6.45c.866 0 1.573.708 1.573 1.573v4.577c0 .865-.707 1.573-1.573 1.573" fill="#9570ee"/><path d="M269.446 252.792a1.533 1.533 0 1 0-3.066 0 1.533 1.533 0 0 0 3.066 0" fill="#6db8ff"/><path d="M380.76 255.654h-23.72a2.045 2.045 0 0 0-2.043 2.045v14.176c0 1.13.915 2.045 2.044 2.045h23.719a2.045 2.045 0 0 0 2.045-2.045v-14.176a2.046 2.046 0 0 0-2.045-2.045" fill="#e3eaff"/><path d="M368.928 264.928h-.055a.73.73 0 0 0-.354.092l-10.72 5.955a.732.732 0 0 0 .71 1.277l10.392-5.772 10.39 5.772a.73.73 0 0 0 .994-.283.729.729 0 0 0-.284-.994l-10.72-5.955a.73.73 0 0 0-.353-.092" fill="#fd4940"/><path d="M421.759 257.526h-30.847a1.814 1.814 0 0 0-1.814 1.814v40.957c0 1.001.812 1.814 1.814 1.814h30.847a1.814 1.814 0 0 0 1.814-1.814V259.34a1.814 1.814 0 0 0-1.814-1.814" fill="#544db8"/><path d="M396.8 296.135h-2.296c-.123 0-.222.199-.222.444s.099.444.222.444h2.297c.122 0 .22-.2.22-.444 0-.245-.098-.444-.22-.444m14.221 0h-13.14c-.122 0-.221.199-.221.444s.099.444.22.444h13.14c.122 0 .221-.2.221-.444 0-.245-.099-.444-.22-.444" fill="#0cf"/><path d="M402.073 294.299h-4.19c-.123 0-.223.199-.223.444s.1.445.222.445h4.191c.122 0 .222-.2.222-.445s-.1-.444-.222-.444" fill="#ff56a9"/><path d="M408.967 294.299h-6.04c-.122 0-.222.199-.222.444s.1.445.222.445h6.04c.122 0 .222-.2.222-.445s-.1-.444-.222-.444m2.055-8.939h-13.14c-.122 0-.221.2-.221.445s.099.444.22.444h13.14c.122 0 .221-.2.221-.444 0-.245-.099-.444-.22-.444" fill="#e3eaff"/><path d="M396.8 283.525h-2.296c-.123 0-.222.199-.222.444s.099.444.222.444h2.297c.122 0 .22-.2.22-.444 0-.245-.098-.444-.22-.444" fill="#0cf"/><path d="M402.073 283.525h-4.19c-.123 0-.223.199-.223.444s.1.444.222.444h4.191c.122 0 .222-.2.222-.444 0-.245-.1-.444-.222-.444" fill="#e3eaff"/><path d="M408.967 283.525h-6.04c-.122 0-.222.199-.222.444s.1.444.222.444h6.04c.122 0 .222-.2.222-.444 0-.245-.1-.444-.222-.444m5.313 8.938h-16.398c-.123 0-.222.2-.222.444 0 .245.1.444.222.444h16.398c.122 0 .221-.199.221-.444s-.099-.444-.22-.444" fill="#ff56a9"/><path d="M410.843 290.627h-3.817a.234.234 0 0 0-.235.234v.42c0 .13.106.234.235.234h3.817c.13 0 .234-.104.234-.234v-.42a.234.234 0 0 0-.234-.234" fill="#0cf"/><path d="M403.33 290.627h-5.448c-.122 0-.222.2-.222.444 0 .245.1.444.222.444h5.447c.122 0 .221-.199.221-.444s-.099-.444-.22-.444" fill="#e3eaff"/><path d="M406.228 290.627h-2.16c-.122 0-.221.2-.221.444 0 .245.099.444.22.444h2.16c.123 0 .223-.199.223-.444s-.1-.444-.222-.444" fill="#0cf"/><path d="M396.8 288.853h-2.296c-.123 0-.222.199-.222.444s.099.444.222.444h2.297c.122 0 .22-.199.22-.444s-.098-.444-.22-.444m17.479 0h-16.398c-.123 0-.222.199-.222.444s.1.444.222.444h16.398c.122 0 .221-.199.221-.444s-.099-.444-.22-.444m-17.481-7.028h-2.296c-.123 0-.222.199-.222.444s.099.444.222.444h2.297c.122 0 .22-.2.22-.444 0-.245-.098-.444-.22-.444m15.644 0h-5.379a.275.275 0 0 0-.275.275v.338c0 .152.123.275.275.275h5.38a.275.275 0 0 0 .274-.275v-.338a.275.275 0 0 0-.275-.275m-9.115 0h-5.448c-.122 0-.222.199-.222.444s.1.444.222.444h5.447c.122 0 .221-.2.221-.444 0-.245-.099-.444-.22-.444m2.898 0h-2.16c-.122 0-.221.199-.221.444s.099.444.22.444h2.16c.123 0 .223-.2.223-.444 0-.245-.1-.444-.222-.444" fill="#e3eaff"/><path d="M396.8 280.05h-2.296c-.123 0-.222.2-.222.444 0 .245.099.444.222.444h2.297c.122 0 .22-.199.22-.444s-.098-.444-.22-.444" fill="#ffc359"/><path d="M400.72 280.05h-2.838c-.122 0-.222.2-.222.444 0 .245.1.444.222.444h2.839c.122 0 .222-.199.222-.444s-.1-.444-.222-.444m-6.217 6.967c-.123 0-.222.2-.222.444 0 .245.099.444.222.444h2.297c.122 0 .22-.199.22-.444s-.098-.444-.22-.444" fill="#0cf"/><path d="M413.198 287.017h-6.114a.293.293 0 0 0-.293.292v.304c0 .161.131.292.293.292h6.114a.293.293 0 0 0 .293-.292v-.304a.293.293 0 0 0-.293-.292" fill="#e3eaff"/><path d="M403.33 287.017h-5.448c-.122 0-.222.2-.222.444 0 .245.1.444.222.444h5.447c.122 0 .221-.199.221-.444s-.099-.444-.22-.444m2.898 0h-2.16c-.122 0-.221.2-.221.444 0 .245.099.444.22.444h2.16c.123 0 .223-.199.223-.444s-.1-.444-.222-.444" fill="#ffc359"/><path d="M411.022 278.163h-13.14c-.122 0-.221.199-.221.444s.099.444.22.444h13.14c.122 0 .221-.2.221-.444 0-.245-.099-.444-.22-.444m-8.949-1.836h-4.19c-.123 0-.223.2-.223.444 0 .245.1.444.222.444h4.191c.122 0 .222-.199.222-.444s-.1-.444-.222-.444m6.894 0h-6.04c-.122 0-.222.2-.222.444 0 .245.1.444.222.444h6.04c.122 0 .222-.199.222-.444s-.1-.444-.222-.444m2.055-8.938h-13.14c-.122 0-.221.199-.221.444s.099.444.22.444h13.14c.122 0 .221-.2.221-.444 0-.245-.099-.444-.22-.444" fill="#e3eaff"/><path d="M396.8 265.553h-2.296c-.123 0-.222.199-.222.444s.099.444.222.444h2.297c.122 0 .22-.2.22-.444 0-.245-.098-.444-.22-.444" fill="#ff56a9"/><path d="M402.073 265.553h-4.19c-.123 0-.223.199-.223.444s.1.444.222.444h4.191c.122 0 .222-.2.222-.444 0-.245-.1-.444-.222-.444" fill="#0cf"/><path d="M408.967 265.553h-6.04c-.122 0-.222.199-.222.444s.1.444.222.444h6.04c.122 0 .222-.2.222-.444 0-.245-.1-.444-.222-.444" fill="#e3eaff"/><path d="M396.8 274.491h-2.296c-.123 0-.222.2-.222.444 0 .245.099.444.222.444h2.297c.122 0 .22-.199.22-.444s-.098-.444-.22-.444m12.81 0h-11.684a.268.268 0 0 0-.267.267v.354c0 .148.12.267.267.267h11.684a.268.268 0 0 0 .268-.267v-.354a.268.268 0 0 0-.268-.267" fill="#ff56a9"/><path d="M396.8 272.655h-2.296c-.123 0-.222.2-.222.444 0 .245.099.444.222.444h2.297c.122 0 .22-.199.22-.444s-.098-.444-.22-.444m6.529 0h-5.448c-.122 0-.222.2-.222.444 0 .245.1.444.222.444h5.447c.122 0 .221-.199.221-.444s-.099-.444-.22-.444m2.898 0h-2.16c-.122 0-.221.2-.221.444 0 .245.099.444.22.444h2.16c.123 0 .223-.199.223-.444s-.1-.444-.222-.444m-9.428-1.775h-2.296c-.123 0-.222.2-.222.445s.099.444.222.444h2.297c.122 0 .22-.2.22-.444 0-.245-.098-.444-.22-.444m15.945-.001H397.96a.3.3 0 0 0-.3.3v.289a.3.3 0 0 0 .3.3h14.786a.3.3 0 0 0 .3-.3v-.29a.3.3 0 0 0-.3-.298m-15.946-7.028h-2.296c-.123 0-.222.199-.222.444s.099.444.222.444h2.297c.122 0 .22-.2.22-.444 0-.245-.098-.444-.22-.444m17.462 0h-7.25c-.122 0-.222.199-.222.444s.1.444.222.444h7.25c.122 0 .22-.2.22-.444 0-.245-.098-.444-.22-.444m-10.933 0h-5.448c-.122 0-.222.199-.222.444s.1.444.222.444h5.447c.122 0 .221-.2.221-.444 0-.245-.099-.444-.22-.444m2.898 0h-2.16c-.122 0-.221.199-.221.444s.099.444.22.444h2.16c.123 0 .223-.2.223-.444 0-.245-.1-.444-.222-.444" fill="#e3eaff"/><path d="M407.581 262.078h-9.677a.243.243 0 0 0-.244.243v.402c0 .134.11.243.244.243h9.677a.243.243 0 0 0 .243-.243v-.402a.243.243 0 0 0-.243-.243" fill="#ffc359"/><path d="M413.584 269.045h-6.492a.301.301 0 0 0-.301.3v.287a.3.3 0 0 0 .301.3h6.492a.301.301 0 0 0 .301-.3v-.286a.301.301 0 0 0-.301-.301" fill="#ff56a9"/><path d="M403.33 269.045h-5.448c-.122 0-.222.199-.222.444s.1.444.222.444h5.447c.122 0 .221-.2.221-.444 0-.245-.099-.444-.22-.444m2.898 0h-2.16c-.122 0-.221.199-.221.444s.099.444.22.444h2.16c.123 0 .223-.2.223-.444 0-.245-.1-.444-.222-.444" fill="#ffc359"/><path d="M428.052 301.19a7.259 7.259 0 1 0-14.517.002 7.259 7.259 0 0 0 14.517-.002" fill="#ff4dd1"/><path d="M420.268 301.871l-2.883-1.056 2.883-1.048v-1.082l-4.121 1.567v1.126l4.12 1.566v-1.073zm.941 1.073l4.121-1.566v-1.126l-4.121-1.567v1.082l2.883 1.048-2.883 1.056v1.073z" fill="#f9fbfc"/><path d="M380.658 178.81a7.873 7.873 0 0 0-7.873-7.873 7.872 7.872 0 0 0-7.873 7.873 7.873 7.873 0 0 0 15.746 0" fill="#ffc240"/><path d="M371.728 178.623c0-.716.292-1.074.876-1.074.305 0 .537.108.697.323.16.216.256.566.29 1.052l.067 1.125a2.81 2.81 0 0 1-.586.056c-.424 0-.754-.132-.99-.397s-.354-.626-.354-1.085m5.214.637a3.69 3.69 0 0 0-.235-1.342c-.156-.405-.376-.724-.662-.954a1.526 1.526 0 0 0-.993-.347c-.25 0-.472.061-.667.181a1.04 1.04 0 0 0-.416.476h-.082a1.747 1.747 0 0 0-1.4-.657c-.6 0-1.073.181-1.42.542-.346.362-.52.857-.52 1.485 0 .716.228 1.292.683 1.731.455.437 1.049.656 1.782.656.292 0 .613-.027.965-.084.35-.055.64-.123.868-.201l-.117-2.489c0-.472.129-.708.387-.708.217 0 .389.159.519.476.129.318.194.733.194 1.245 0 .546-.115 1.029-.342 1.449a2.315 2.315 0 0 1-.96.959 2.96 2.96 0 0 1-1.412.331c-.686 0-1.281-.141-1.787-.422a2.822 2.822 0 0 1-1.163-1.22c-.27-.531-.406-1.144-.406-1.841 0-.936.25-1.655.75-2.156.502-.5 1.228-.751 2.178-.751.359 0 .755.04 1.187.12.43.08.855.196 1.272.349v-.978c-.727-.308-1.532-.463-2.418-.463-1.29 0-2.296.339-3.017 1.018-.721.679-1.082 1.623-1.082 2.831 0 .838.185 1.6.553 2.283a4.008 4.008 0 0 0 1.573 1.61c.68.388 1.463.583 2.35.583.746 0 1.413-.154 2-.459a3.24 3.24 0 0 0 1.359-1.303c.32-.564.48-1.214.48-1.95" fill="#fff"/><path d="M333.22 315.013h-49.39a7.264 7.264 0 0 1 0-14.527h3.632l3.51-3.51 3.512 3.51h38.738a7.264 7.264 0 1 1 0 14.527" fill="#9570ee"/><path d="M319.088 305.434h-32.501a.812.812 0 1 0 0 1.625h32.5a.813.813 0 0 0 0-1.625m-10.157 4.469h-22.343a.812.812 0 1 0 0 1.625h22.344a.812.812 0 0 0 0-1.625" fill="#fff"/><path d="M400.73 222.974s-.605-1.793-.939-2.877c0 0 2.961.063 4.003 1.439l-1.104 2.648-1.96-1.21z" fill="#f7d3a9"/><path d="M400.284 173.523l.254-1.128 1.635-.092-.346 1.381-1.543-.16z" fill="#f79a74"/><path d="M400.538 172.395s-2.74-1.428-2.718-1.52c.024-.092 4.63.392 4.63.392l-.277 1.036-1.635.092z" fill="#544db8"/><path d="M414.103 175.797l.642-.962 1.558.503-.82 1.164-1.38-.705z" fill="#f79a74"/><path d="M414.744 174.835s-2.043-2.318-1.988-2.396c.054-.078 4.177 2.032 4.177 2.032l-.63.867-1.559-.503z" fill="#544db8"/><path d="M397.245 203.345s-4.697-15.337 2.764-30.12h2.21s-4.42 16.718 1.105 30.258l-6.079-.138z" fill="#ffc240"/><path d="M401.323 202.802s.73-16.022 12.723-27.44l2.082.743s-9.782 14.26-9.125 28.87l-5.68-2.173z" fill="#ffc240"/><path d="M399.172 238.905l.006.945a.461.461 0 0 1-.016.123l-.18.677-.54-.138-.548.508a.467.467 0 0 1-.74-.14c-.17-.36-.363-.825-.423-1.178a.459.459 0 0 1 .118-.388l.84-.92a.467.467 0 0 1 .478-.133l.67.2a.466.466 0 0 1 .335.444" fill="#f79a74"/><path d="M407.275 218.166s-6.127 6.566-6.53 9.024c-.405 2.457-1.3 11.6-1.3 11.6l-1.89-.365s-.648-13.076-.075-14.582c.574-1.506 4.258-9.181 6.657-9.889 2.4-.709 4.085 1.657 3.138 4.212" fill="#ff4f72"/><path d="M398.765 228.997s-1.382-4.598-.507-5.757c.876-1.159 4.099-.109 5.35 1.745 1.25 1.855 1.502 6.03-.625 6.376-2.127.348-3.717-.51-4.218-2.364" fill="#f79a74"/><path d="M407.055 202.1s1.243 13.265 1.243 16.857c0 .165-.003.319-.005.473-.925 2.336-3.22 2.29-4.14 2.107-.92-.185-4.513-1.336-4.49-1.474l-.01.012c-1.237-.9-2.183-1.964-2.27-2.223 0 0-3.315-6.908-.414-15.198l10.086-.553z" fill="#ff4f72"/><path d="M389.495 238.227l-.16.932a.477.477 0 0 1-.038.118l-.296.635-.506-.23-.63.402a.467.467 0 0 1-.704-.269c-.104-.384-.213-.874-.21-1.233a.457.457 0 0 1 .185-.36l.988-.758a.468.468 0 0 1 .494-.048l.625.314a.466.466 0 0 1 .252.497" fill="#f79a74"/><path d="M401.113 219.233s-7.185 5.388-8.013 7.737c-.829 2.35-3.316 11.192-3.316 11.192l-1.796-.692s1.658-12.987 2.486-14.369c.83-1.382 5.804-8.29 8.29-8.566 2.488-.277 3.731 2.35 2.35 4.698" fill="#ff4f72"/><path d="M403.877 231.392s-3.685 1.565-5.435-1.658c-.92-2.027 2.027-.092 2.58-.737.552-.645-.738-1.934-.369-2.395.369-.46 1.013.829 1.382.093.368-.738-.553-.83-1.198-1.658-.645-.83.553-2.027-.368-2.764-.921-.736-3.5-1.29-1.935-5.25 1.567-3.961-2.579-4.974-.828-10.408 1.75-5.435 13.632-8.475 15.843-2.027 2.21 6.448-5.158 8.014-4.698 10.869.461 2.856 2.119 3.592-.092 6.448-2.211 2.855-3.593 4.513-2.947 6.355.644 1.843-1.106 3.132-1.935 3.132" fill="#544db8"/><path d="M416.96 245.39a.969.969 0 1 0 .002 1.937.969.969 0 0 0-.001-1.937m-3.036-3.971a2.519 2.519 0 0 0-2.494 2.177h4.988a2.52 2.52 0 0 0-2.494-2.177m-4.004 4.939a.968.968 0 1 0 1.935 0 .968.968 0 0 0-1.935 0m4.004 7.304a7.921 7.921 0 1 1 0-15.842 7.921 7.921 0 0 1 0 15.842" fill="#fec800"/><path d="M296.272 189.408l-.464.928 12.556 6.277 15.84-.259 17.2 6.478h13.135l14.025 4.676.114-.013 11.248-1.278 6.34 3.296.48-.919-6.62-3.443-.16.018-11.29 1.283-14.053-4.656h-13.125l-17.113-6.483-.098.002-15.686.257-12.329-6.164z" fill="#f9fbfc"/><path d="M342.353 214.282s12.442-20.152 10.887-34.172l8.467-.175-3.628 2.103 1.037.176s-3.112 21.73-6.049 29.44c-3.077 8.076-3.975 5.082-3.975 5.082l-6.739-2.454z" fill="#544db8"/><path d="M337.86 215.534s.691-13.998-.346-19.354c-1.037-5.358-4.147-15.899-4.147-15.899l7.95-.173-2.089 1.474-1.325.772s5.66 15.207 6.178 22.465c.518 7.26 1.383 11.406 1.383 11.406l-7.604-.69z" fill="#544db8"/><path d="M354.126 256.965l1.296.907.583 2.139-.648.129-.388-.777.388 3.693-.648-.13-.647-3.563-.779-1.685.713-.454m7.798-4.104l.173 1.556 1.9 1.9.433-.604-.692-.778 3.629.864v-.778l-3.37-1.296-.69-1.21-1.383.346z" fill="#f7d3a9"/><path d="M353.227 258.272s-14.758-17.909-16.477-21.49c0 0-.716-1.29-.716-5.016 0-3.724 1.29-17.478 1.29-17.478l15.044-.86s-4.872 16.763-5.015 17.193c-.144.429-2.58 3.008-4.872 3.582l12.608 22.78-1.862 1.29z" fill="#6db8ff"/><path d="M343.882 235.933s.627-1.86.973-2.984c0 0-3.071.064-4.152 1.492l1.147 2.746 2.032-1.254z" fill="#f7d3a9"/><path d="M346.217 241.745s.908-5.29 0-6.49c-.908-1.203-4.021.84-5.32 2.763-1.296 1.923-1.556 6.251.65 6.612 2.205.36 4.15-.962 4.67-2.885" fill="#f7d3a9"/><path d="M344.821 231.954s11.831 7.442 12.785 8.97c.954 1.525 3.626 12.88 3.626 12.88l2.29-.573s-1.336-12.69-1.718-14.026c-.38-1.336-12.022-13.739-14.694-13.739-2.67 0-3.625 3.434-2.289 6.488" fill="#6db8ff"/><path d="M345.378 242.924s.604 2.074-.691 3.11c-1.296 1.037-3.543.865-3.89.519 0-.605 1.384-.95 1.038-1.296-.346-.346-2.16 0-2.592-1.814-.432-1.815.173-2.161.173-2.161s-.951-1.123.172-2.678c1.124-1.555 3.662-2.837 4.294-2.671.632.166.286 2.585.286 2.585s-1.47.173-1.556 1.123c-.086.95.692 1.037 1.037.69.346-.345.432-1.122.692-.95.259.174-.087 1.988-.087 1.988s.95.778 1.124 1.555" fill="#544db8"/><path d="M352.342 189.985l-8.886-2.437a4.62 4.62 0 0 1-3.223-5.66l1.68-6.129a4.62 4.62 0 0 1 5.66-3.224l2.665.731 2.624-2.593.933 3.57 2.665.73a4.62 4.62 0 0 1 3.224 5.66l-1.681 6.128a4.62 4.62 0 0 1-5.661 3.224" fill="#9570ee"/><path d="M346.462 179.943a1.02 1.02 0 1 0-1.965-.537 1.02 1.02 0 0 0 1.965.537m4.478 1.229a1.02 1.02 0 1 0-1.965-.539 1.02 1.02 0 0 0 1.965.539m4.478 1.228a1.02 1.02 0 1 0-1.966-.54 1.02 1.02 0 0 0 1.966.54" fill="#fff"/><path d="M310.038 196.352a1.642 1.642 0 1 0-3.284 0 1.642 1.642 0 0 0 3.284 0" fill="#ffc240"/><path d="M370.349 206.894a1.642 1.642 0 1 0-3.285 0 1.642 1.642 0 0 0 3.285 0" fill="#ff4f72"/></g></svg>