<svg xmlns="http://www.w3.org/2000/svg" width="250" height="250" preserveAspectRatio="xMidYMid"><path d="M126.104 239.412c-3.367 0-6.51-.848-9.427-2.333L86.826 220.32c-4.49-2.333-2.245-3.182-.898-3.606 6.06-1.91 7.182-2.334 13.467-5.728.673-.424 1.57-.212 2.244.212l22.893 12.94c.898.425 2.02.425 2.694 0l89.553-49.003c.898-.424 1.347-1.272 1.347-2.333V75.008c0-1.06-.45-1.91-1.347-2.334l-89.553-48.79c-.898-.425-2.02-.425-2.694 0L34.98 72.673c-.898.425-1.347 1.485-1.347 2.334v97.794c0 .848.45 1.91 1.347 2.333L59.443 188.5c13.243 6.364 21.547-1.06 21.547-8.486v-96.52c0-1.274 1.122-2.546 2.693-2.546H95.13c1.347 0 2.693 1.06 2.693 2.545v96.521c0 16.76-9.65 26.517-26.484 26.517-5.162 0-9.202 0-20.649-5.303L27.123 188.5c-5.835-3.182-9.426-9.122-9.426-15.486V75.22c0-6.364 3.59-12.304 9.426-15.486l89.554-49.003c5.61-2.97 13.242-2.97 18.853 0l89.554 49.003c5.835 3.182 9.426 9.122 9.426 15.486v97.794c0 6.364-3.59 12.304-9.426 15.486l-89.554 49.003c-2.918 1.273-6.284 1.91-9.426 1.91zm27.606-67.247c-39.278 0-47.358-16.97-47.358-31.395 0-1.273 1.123-2.546 2.694-2.546h11.67c1.347 0 2.47.848 2.47 2.121 1.795 11.243 6.958 16.759 30.749 16.759 18.853 0 26.933-4.03 26.933-13.577 0-5.515-2.244-9.546-31.647-12.304-24.464-2.333-39.726-7.424-39.726-25.88 0-17.183 15.262-27.365 40.849-27.365 28.728 0 42.868 9.334 44.664 29.699 0 .636-.224 1.272-.673 1.909-.45.424-1.123.848-1.796.848h-11.671c-1.122 0-2.244-.848-2.469-1.909-2.693-11.667-9.651-15.486-28.055-15.486-20.65 0-23.118 6.789-23.118 11.88 0 6.152 2.918 8.06 30.749 11.455 27.606 3.394 40.624 8.273 40.624 26.517-.224 18.668-16.384 29.274-44.889 29.274z" fill="#539e43"/></svg>