<svg xmlns="http://www.w3.org/2000/svg" width="600" height="600"><defs><clipPath clipPathUnits="userSpaceOnUse" id="a"><path d="M1000 630h10000v6240H1000V630z"/></clipPath></defs><path fill="#fff" fill-rule="evenodd" stroke="#fff" stroke-width="1.022" d="M.511.511H599.49V599.49H.51z"/><g clip-path="url(#a)" transform="matrix(.10911 0 0 -.10804 -109.111 668.065)"><path d="M1071.12 5975.34c-.09-114.89-93.3-207.95-208.186-207.86-114.887.09-207.946 93.3-207.856 208.18.094 114.89 93.301 207.95 208.184 207.86 114.886-.09 207.948-93.3 207.858-208.18m8628.7-4846.38c-.12-159.14-129.23-288.038-288.38-287.921-159.15.121-288.05 129.242-287.92 288.381.11 159.14 129.23 288.06 288.37 287.93 159.15-.12 288.06-129.23 287.93-288.39" fill="#73a6e6"/><path d="M9227.25 526.059c55.92 535.141-332.55 1014.281-867.68 1070.211-67.91 7.09-134.9 6.96-200.25.36-43.71 188.8-202.87 337.86-406.43 359.13-168.43 17.61-325.28-56.63-420.75-182.31-186.19 2.3-359.21-68.22-489.03-187.1-43.05 47.1-102.62 79.4-171.07 86.56-140.57 14.69-267.04-81.26-293.2-217.54-59.12 59.16-138.14 99.22-227.8 108.59-92.32 9.64-180.29-14.87-251.48-63.26-73.78 116.79-198.31 199.92-346.36 215.38-199.45 20.85-382.62-87.12-466.88-256.74-90.04 77.22-203.58 128.9-330.48 142.17-150.86 15.77-294.46-25.49-409.64-106.2-35.22 92.02-119.44 161.49-224.14 172.43-125.43 13.11-239.48-61.98-281.24-175.08-74.92 86.49-181.52 145.89-304.32 158.73-80.52 8.4-158.38-4.18-228.17-33.33-64.21 151.31-206.47 264.14-381.54 282.43-59.35 6.2-117.22.88-171.52-13.97-109.31 202.52-288.82 363.71-509.56 448.02 17.79 33.58 29.75 70.95 33.94 111.06 13.8 132.02-58.9 252.87-172.19 307.01 89.97 75.15 151.99 183.96 165.14 309.77 17.78 170.13-58.2 328.37-186.17 423.55 128.18 9.19 235.3 108.89 249.12 241.17 10.68 102.16-37.06 196.96-116.26 251.18 51.56 43.45 87.16 106 94.72 178.36 15.51 148.41-92.22 281.29-240.63 296.8-31.14 3.25-61.5.8-90.32-6.03 28.16 52.6 46.88 111.37 53.47 174.38 23.32 223.23-112.23 426.32-315.38 497.08 4.28 17.14 7.49 34.74 9.38 52.81 21.69 207.55-128.98 393.39-336.53 415.08-207.55 21.69-393.38-128.98-415.074-336.53-4.594-43.98-1.375-86.96 8.41-127.64l-1149.129-325.64L338.891 122.531 8342.59-625.348l-32.97 279.746c470.83 24.262 867.09 388.024 917.63 871.661" fill="#73a6e6"/><path d="M565.836-649.93L368.605-470.488 3566.88 3044.78l197.23-179.45L565.836-649.93m161.211-146.679l-88.234 80.269L3837.09 2798.94l88.23-80.29L727.047-796.609M295.621-404.09l-88.226 80.27L3405.67 3191.46l88.23-80.29L295.621-404.09" fill="#5d8dcf"/><path d="M9810.29 762.43c8.36 231.07-172.16 425.16-403.23 433.53-94.24 3.41-182.3-24.61-254.15-74.65-137.63 124.64-318.17 203.38-518.24 210.62-270.35 9.79-514.65-113.08-670.49-310.19-129.72 99.17-290.2 160.7-465.79 167.06a824.3 824.3 0 0 1-85.52-1.37c-14.97 114.46-110.51 204.82-229.71 209.13-84.73 3.07-160.68-38.15-205.93-102.81-72.72 76.15-173.99 125.18-287.53 129.29-99.35 3.6-191.81-27.8-265.66-83.04-69.66 60.44-159.62 98.44-258.96 102.04-220.79 7.99-407.71-156.53-431.2-372.77-9 4.57-18.16 8.95-27.62 12.93-100.21 42.11-207.53 42.25-302.45 8.46-14.39 141.85-131.24 255.01-277.75 260.32-80.01 2.9-153.62-26.9-207.97-77.43-68.26 55.77-154.58 90.56-249.45 94-176.87 6.4-331.97-97.94-398.8-250.83-59.71 30.78-126.93 49.29-198.52 51.88-55.69 2.02-109.46-5.79-159.69-21.75-84.91 267.86-330.66 466.28-627.57 477.04-108.35 3.91-211.67-17.68-304.33-59.24-9.24 114.47-102.82 206.47-220.4 210.73-12.45.45-24.63-.38-36.62-1.85-48.64 99.48-149.04 169.64-267.43 173.92-25.44.93-50.15-1.59-74.02-6.51-15.49 144.51-104.92 267.96-230.84 330.23 46.12 126.1 27.62 261.36-39.89 367.89 31.35 29.18 51.58 70.32 53.25 116.51 2.82 77.82-48.01 144.96-119.28 166.3 46.84 49.44 76.76 115.28 79.43 188.7 3.87 107.02-50.92 202.37-135.39 255.7 60.42 69.67 98.4 159.59 102 258.92 5.95 164.47-83.85 310.14-219.41 383.5 35.96 40.38 58.63 93.04 60.74 151.3 4.8 132.86-99 244.47-231.86 249.28-5.32.19-10.54-.08-15.78-.23a471.742 471.742 0 0 1 20.13 120.34c7.27 200.69-112.19 376.49-286.62 450.59 10.35 47.25 16.87 95.98 18.68 146.03 16.32 450.72-335.83 829.33-786.549 845.66-450.715 16.31-829.328-335.83-845.652-786.55-16.321-450.73 335.832-829.33 786.547-845.66 43.57-1.57 86.437.37 128.39 5.44L484.262 1398.26 2518.67-605.211l6768.15 142.43 155.73 824.769c201.03 24.254 360.18 191.703 367.74 400.442" fill="#5d8dcf"/><path d="M7880.89 111.68c57.89 460.461-268.45 880.66-728.91 938.55-58.43 7.35-116.2 8.45-172.67 3.93-34.28 163.6-168.84 295.02-344 317.04-144.92 18.22-281.53-42.97-366.12-149.61-160.52 5.34-311-52.33-425.09-152.52-36.27 41.4-87.06 70.33-145.96 77.74-120.95 15.2-231.74-65.25-256.77-182.298-49.91 52.088-117.32 88.058-194.48 97.758-79.43 9.99-155.74-9.56-218-50-61.51 102.04-167.4 175.96-294.79 191.98-171.61 21.58-331.52-68.21-407.25-212.969-76.24 68.219-173.22 114.839-282.42 128.569-129.81 16.32-254.38-16.67-355.17-84.18-28.7 79.99-100.08 141.42-190.17 152.75-107.92 13.56-207.63-49.12-245.68-145.91-63.05 75.95-153.9 129.09-259.56 142.37-69.28 8.71-136.66-.74-197.36-24.62-52.65 131.65-173.28 231.52-323.92 250.45-51.07 6.43-101.07 2.87-148.17-8.94-90.6 176.62-242.49 318.85-431.32 395.54 15.95 28.64 26.94 60.65 31.28 95.16 14.28 113.6-46.23 219.13-142.95 267.86 78.95 63.19 134.4 155.9 148.01 264.15 18.4 146.39-44.25 284.22-152.89 368.6 110.71 5.61 204.87 89.65 219.18 203.47 11.05 87.91-28.41 170.52-95.72 218.71 45.25 36.54 77.08 89.83 84.91 152.09 16.05 127.71-74.45 244.24-202.15 260.3-26.79 3.37-53.01 1.79-78-3.58 25.24 44.86 42.45 95.21 49.26 149.42 24.15 192.08-89.08 369.65-262.98 434.35 4 14.69 7.09 29.82 9.04 45.37 22.45 178.59-104.12 341.57-282.7 364.02-178.59 22.45-341.565-104.12-364.018-282.71-4.758-37.85-2.762-74.97 4.945-110.22l-996.82-260.05 347.324-4040 6888.419-789.5-23.39 241.84c406.45 12.41 754.74 318.941 807.06 735.09" fill="#456cb0"/><path d="M7602.34 79.48c25.91 191.25-108.11 367.29-299.36 393.211-77.99 10.559-153.45-5.492-217.24-41.16-104.08 114.821-247.6 195.039-413.18 217.481-223.77 30.32-436.78-51.703-582.4-202.633-99.61 93.012-227.87 157.293-373.2 176.992a688.933 688.933 0 0 1-71.14 5.879c-3.05 96.313-74.99 179.191-173.65 192.563-70.13 9.496-136.59-18.512-179.49-68.504-54.16 69.23-134.25 118.261-228.23 130.992-82.22 11.14-161.6-7.352-227.48-47.172-52.91 55.922-124.5 94.859-206.73 106-182.75 24.762-351.51-96.57-388.77-274.25-7.1 4.531-14.35 8.922-21.88 13-79.78 43.203-168.92 52.133-250.53 31.851-.31 119-88.09 222.602-209.35 239.032-66.22 8.968-129.82-9.742-179.11-47.242-52.12 51.91-120.96 87.902-199.49 98.53-146.39 19.84-283.78-54.101-351.84-175.62-47.07 30.48-101.39 51.359-160.64 59.39-46.1 6.25-91.4 4.18-134.44-4.961-48.55 229.451-236.4 414.441-482.13 447.751-89.68 12.14-177.28 2.68-257.66-24.24 1.72 95.85-68.46 179.95-165.78 193.13-10.3 1.4-20.49 1.71-30.57 1.47-32.23 86.62-109.88 153.14-207.87 166.42-21.05 2.85-41.78 2.8-62.01.67-1.01 121.31-65.17 231.18-164.65 293.24 48.66 100.96 44.39 214.83-2.94 308.86 28.43 21.67 48.61 54.18 53.79 92.41 8.73 64.4-27.98 124.35-85.43 147.92 42.96 37.22 73.22 89.46 81.45 150.22 12.01 88.59-25.68 172.28-91.47 223.52 55.9 52.9 94.83 124.48 105.97 206.69 18.45 136.13-44.19 264.5-150.78 336.56 33.19 30.6 56.33 72.47 62.87 120.69 14.9 109.97-62.17 211.2-172.14 226.09-4.4.6-8.76.8-13.12 1.11a394.302 394.302 0 0 1 26.6 98.31c22.5 166.11-62.3 321.93-201.109 397.79 12.477 38.4 21.891 78.35 27.499 119.78 50.54 373.04-210.897 716.43-583.944 766.98-373.051 50.54-716.442-210.9-766.981-583.95-50.547-373.05 210.895-716.44 583.945-766.98 36.059-4.89 71.825-6.79 107.09-6.02L-92.098 1372.95 1433.36-458.16l5633.62-437.11 197.04 672.309C7433-219.32 7578.94-93.281 7602.34 79.48" fill="#27528c"/><path d="M3444.56 2828.56c-27.58 61.65-59 121.56-94.01 179.3-36.21 59.73-77.58 124.13-84.9 191.1l-146.87-121.17c-1.73-1.12-3.33-2.38-4.69-3.87-38.81-42.66 91.29-224.22 290.58-405.55 18.37-16.71 36.69-32.83 54.84-48.31 10.33 22.11 17.61 45.23 19.35 69.75 3.4 48.03-14.64 94.81-34.3 138.75" fill="#93f5e5"/><path d="M3835.79 2417.29c1.36 1.5 2.46 3.21 3.41 5.04l417.91 616.92-563.54 512.72-427.92-353.01c7.32-66.97 48.69-131.37 84.9-191.1a1628.792 1628.792 0 0 0 94.01-179.3c19.66-43.94 37.7-90.72 34.3-138.75-1.74-24.52-9.02-47.64-19.35-69.75 178.73-152.4 341.05-241.49 376.28-202.77" fill="#5dc2ae"/><path d="M4233.22 4748.95c-253.78-311.84-521.15-614.02-847.35-846.76-130.52-93.12-271.12-175.03-424.63-221.3-106.95-32.24-220.87-46.24-331.54-34.54l-204.72-239.52c170.77-155.36 413.16-182.63 586.81-64.8L4597.18 4417.8l-363.96 331.15" fill="#164377"/><path d="M2961.24 3680.89c153.52 46.27 294.11 128.18 424.62 221.3 326.22 232.74 593.58 534.92 847.36 846.76l-26.75 24.33c-190.64 173.44-473.17 164.3-629.39-18.49L2629.7 3646.35c110.67-11.7 224.59 2.3 331.54 34.54m2120.22-747.2c164.02 154.84 328.05 309.67 492.08 464.5-17.03 97.46-66.89 192.16-148.88 266.75l-390.71 355.48-889.93-1621.98c140.22 6.48 280.8 50.73 405.65 116.8 200.01 105.85 367.23 263.12 531.79 418.45" fill="#105697"/><path d="M5573.54 3398.19c-164.03-154.83-328.06-309.66-492.08-464.5-164.56-155.33-331.78-312.6-531.79-418.45-124.85-66.07-265.43-110.32-405.65-116.8l-31.67-57.73c-100.94-183.97-50.97-422.72 119.79-578.08L5465.56 3036.6c95.32 98.46 130.53 232.44 107.98 361.59" fill="#164377"/><path d="M3616.82 3185.22c-123.3 135.48-205.65 266.18-224.67 355.77l-93.07-123.67c-35-44.67 1.05-144.58 84.96-262.75 36.89 13.56 75.2 23.21 114.62 27.29 39.13 4.05 78.67 3.65 118.16 3.36" fill="#93f5e5"/><path d="M4139.41 2780.6c-10.26 4.7-20.74 9.75-31.42 15.15-21.34 10.8-43.46 22.97-66.17 36.44-22.71 13.46-46.01 28.23-69.74 44.2-71.16 47.89-146.07 106.62-219.98 173.85-49.05 44.64-94.41 90.07-135.28 134.98-39.49.29-79.03.69-118.16-3.36-39.42-4.08-77.73-13.73-114.62-27.29 57.16-80.49 136.52-169.44 230.78-255.21 232.67-211.68 476.19-331.2 545.42-265.53l114.34 104.3c-15.14 1.74-31.58 5.13-49.15 10.07-26.34 7.41-55.22 18.3-86.02 32.4" fill="#5dc2ae"/><path d="M3777.2 3196.39c107.91 24.17 198.12 95.81 283.15 166.51 545.71 453.82 1050.92 956.21 1508.5 1498.77a1918.44 1918.44 0 0 0-95.03 80.94c-171.17 155.74-298.76 328.23-368.7 473.35-382.15-240.37-703.57-533.72-944.87-854.34l-768.1-1020.63c19.02-89.59 101.37-220.29 224.67-355.76 54-.4 107.88-.59 160.38 11.16" fill="#fff"/><path d="M5979.81 4620.14c-123.4 45.71-268.61 128.03-410.96 241.53-457.58-542.56-962.79-1044.95-1508.5-1498.77-85.03-70.7-175.24-142.34-283.15-166.51-52.5-11.75-106.38-11.56-160.38-11.16 40.87-44.92 86.23-90.35 135.29-134.98 73.9-67.24 148.81-125.97 219.97-173.86 23.73-15.97 47.03-30.74 69.74-44.2 22.71-13.47 44.82-25.64 66.17-36.44 10.68-5.4 21.16-10.45 31.42-15.15 30.81-14.1 59.68-24.99 86.02-32.4 17.57-4.94 34.01-8.33 49.15-10.06l943.71 860.84c296.47 270.44 558.23 618.07 761.52 1021.16" fill="#d2d3d3"/><path d="M5568.85 4861.67c291.06 345.11 562.84 706.48 813.41 1082.02-470.9-108.01-903.07-292.44-1277.14-527.73 69.94-145.13 197.53-317.62 368.7-473.35a1918.44 1918.44 0 0 1 95.03-80.94" fill="#93f5e5"/><path d="M5979.81 4620.14c199.43 395.43 342.54 844.13 405.48 1324.27v.01c-1.01-.24-2.02-.5-3.03-.73-250.57-375.54-522.35-736.91-813.41-1082.02 142.35-113.5 287.56-195.82 410.96-241.53" fill="#5dc2ae"/><path d="M4543.08 3786.74c-3.06 2.65-6.11 5.36-9.12 8.1-131.12 119.3-186.34 290.86-162.83 454.03 14.15 98.15 56.78 193.27 128.54 272.14 101.44 111.5 240.65 168.12 380.38 168.12 123.44 0 247.29-44.21 345.79-133.83a521.67 521.67 0 0 0 39.46-39.99c-230.3-252.92-471.32-496.1-722.22-728.57" fill="#c9c9c9"/><path d="M4879.75 3661.01c-119.67.01-239.71 41.54-336.67 125.73 250.9 232.47 491.92 475.65 722.22 728.57 73.04-82.56 115.21-183.63 125.88-287.62 14.4-140.34-28.63-285.99-131.05-398.56-101.44-111.5-240.65-168.13-380.38-168.12" fill="#a6a6a6"/><path d="M4956.82 4098.33c176.58 27.42 335.21 130.69 453.42 265.06-12.46 121.47-67.91 238.97-165.34 327.61-209.99 191.06-535.11 175.71-726.16-34.29-71.77-78.87-114.4-173.99-128.54-272.14 19.62-37.62 41.01-74.07 67.35-107.26 115.18-145.1 316.2-207.41 499.27-178.98" fill="#93f5e5"/><path d="M5410.24 4363.39c-118.21-134.37-276.84-237.64-453.42-265.06-183.07-28.43-384.09 33.88-499.27 178.98-26.34 33.19-47.73 69.64-67.35 107.26-23.52-163.17 31.7-334.73 162.82-454.03 209.99-191.06 535.11-175.71 726.17 34.29 102.42 112.57 145.45 258.22 131.05 398.56" fill="#5dc2ae"/><path d="M5234.52 4530.21l-669.78 1.96c-15.35-23.11-27.98-47.42-38-72.5l745.28-2.19c-9.9 25.21-22.36 49.6-37.5 72.73" fill="#fff"/><path d="M5272.02 4457.48l-745.28 2.19c-13.65-34.15-22.36-69.72-26.24-105.69l797.17-2.34a401.539 401.539 0 0 1-25.65 105.84m-103.3 149.79c-163.75 148.98-417.27 137.01-566.25-26.74-14-15.38-26.57-31.56-37.73-48.36l669.78-1.96c-18.18 27.75-40.12 53.69-65.8 77.06" fill="#182b3a"/><path d="M5122.9 3978.31l-449.74 1.32c136.14-93.08 315.13-92.14 449.74-1.32" fill="#fff"/><path d="M5195.46 4041.01c30.28 33.28 53.8 70.31 70.86 109.38l-735.64 2.16c21.91-51.08 54.73-98.43 98.52-138.28 14.02-12.75 28.74-24.24 43.96-34.64l449.74-1.32c26.05 17.57 50.47 38.43 72.56 62.7" fill="#182b3a"/><path d="M5297.67 4351.64l-797.17 2.34c-7.34-68.2 2.85-137.72 30.18-201.43l735.64-2.16c27.91 63.92 38.28 133.36 31.35 201.25" fill="#fff"/><path d="M9103.7 2055.17c-.07-94.37-76.63-170.81-171-170.75-94.37.08-170.82 76.64-170.75 171.02.08 94.36 76.64 170.81 171.02 170.74 94.36-.08 170.81-76.64 170.73-171.01m-1972.4 105.56c-.02-30.77-24.99-55.69-55.76-55.67-30.77.03-55.71 24.99-55.68 55.76.03 30.78 24.99 55.7 55.77 55.67 30.77-.02 55.7-24.98 55.67-55.76M2426.91 4801.86c-.04-49.24-39.99-89.12-89.22-89.08-49.24.04-89.13 39.98-89.09 89.22.04 49.24 39.99 89.12 89.23 89.08 49.24-.04 89.12-39.98 89.08-89.22m-796.4 1182.24c-.06-77.72-63.12-140.68-140.83-140.61-77.72.05-140.68 63.11-140.62 140.83.07 77.72 63.12 140.67 140.84 140.61 77.72-.06 140.67-63.11 140.61-140.83" fill="#73a6e6"/><path d="M6153.11 1906.08c2.83-114.63-87.82-209.87-202.46-212.7-114.64-2.83-209.87 87.8-212.71 202.45-2.83 114.64 87.81 209.87 202.46 212.71 114.64 2.83 209.87-87.81 212.71-202.46M9666.16 696.191c-2.55 102.938 78.85 188.461 181.79 191 102.95 2.551 188.45-78.839 191.05-181.793 2.5-102.937-78.89-188.457-181.84-191.007-102.94-2.532-188.46 78.847-191 181.8M2850.78 2524.52c1.33-53.82-41.21-98.51-95.02-99.84-53.82-1.33-98.52 41.21-99.85 95.03-1.33 53.81 41.22 98.5 95.03 99.84 53.81 1.33 98.51-41.22 99.84-95.03m1367.02-522.13c.75-30.42-23.3-55.68-53.71-56.43-30.42-.75-55.69 23.29-56.44 53.71-.75 30.41 23.3 55.68 53.71 56.43 30.42.76 55.69-23.3 56.44-53.71M2735.61 3020.32c.75-30.41-23.3-55.67-53.72-56.42-30.41-.76-55.67 23.29-56.43 53.71-.75 30.41 23.3 55.67 53.71 56.42 30.42.76 55.68-23.29 56.44-53.71" fill="#5d8dcf"/><path d="M1553.22 5022.45c2.08-84.23-64.51-154.19-148.73-156.27-84.23-2.08-154.2 64.51-156.28 148.74-2.08 84.22 64.51 154.19 148.74 156.27 84.23 2.08 154.19-64.51 156.27-148.74m175.81-1453.83c.86-35.09-26.88-64.25-61.97-65.11-35.1-.87-64.25 26.88-65.12 61.97-.87 35.1 26.88 64.25 61.98 65.12 35.09.86 64.24-26.88 65.11-61.98m5280.39-2523.06c2.08-84.228-64.51-154.189-148.74-156.271-84.22-2.078-154.19 64.512-156.27 148.731-2.09 84.23 64.51 154.2 148.73 156.28 84.23 2.08 154.2-64.51 156.28-148.74m924.92 480.65c.75-30.42-23.3-55.68-53.71-56.43-30.42-.76-55.69 23.3-56.44 53.71-.75 30.42 23.3 55.68 53.71 56.43 30.42.75 55.68-23.3 56.44-53.71m668.77-475.18c1.03-42.12-32.26-77.1-74.38-78.139-42.11-1.039-77.09 32.259-78.13 74.369-1.04 42.11 32.25 77.1 74.37 78.13 42.11 1.05 77.09-32.26 78.14-74.36m-6248.6 1049.44c-2.89 116.98-100.07 209.47-217.05 206.58-116.98-2.89-209.47-100.07-206.58-217.04 2.89-116.98 100.07-209.47 217.04-206.58 116.99 2.89 209.48 100.06 206.59 217.04m732-804.25c1.27-51.47-39.43-94.23-90.89-95.51-51.48-1.27-94.23 39.43-95.51 90.9-1.27 51.48 39.43 94.23 90.9 95.5 51.47 1.28 94.23-39.42 95.5-90.89m535.71 106.49c-.99 39.77-34.03 71.22-73.8 70.24-39.77-.99-71.22-34.02-70.24-73.8.99-39.78 34.02-71.22 73.8-70.23 39.77.97 71.22 34.02 70.24 73.79" fill="#27528c"/></g></svg>