<svg xmlns="http://www.w3.org/2000/svg" width="600" height="600"><path fill="#fff" d="M0-168h1024v768H0z"/><path fill="#fff" fill-rule="evenodd" stroke="#fff" stroke-width="1.278" d="M.639 599.361h598.722V.639H.639z"/><path d="M133.368 100h337.874l-30.165 358.937L304.075 500l-139.8-41.052L133.368 100z" fill="#0096ff"/><path d="M303.232 129.547h138.116L414.45 436.75l-110.938 32.384-.28-339.588z" fill="#fff" fill-opacity=".302"/><path d="M425.012 370.997l15.022-39.56h43.374l-20.586-60.01 25.746-67.798 73.737 203.884h-54.379l-12.602-36.516h-70.312zm-46.392 25.375l78.937-203.885h-52.334l-53.998 131.755-38.399-131.755h-40.225l-41.229 131.755-29.075-60.038-26.313 84.42 26.715 47.748H254.2l37.257-118.156 35.522 118.156h51.64zm-286.64-69.99h32.235c9.764 0 18.46-1.135 26.085-3.405l8.336-26.746 23.299-74.749a59.543 59.543 0 0 0-6.08-8.311c-11.963-13.79-29.465-20.684-52.507-20.684H42.305v203.885h49.676v-69.99zm42.668-86.99c4.673 4.898 7.009 11.452 7.009 19.662 0 8.273-2.055 14.834-6.164 19.685-4.505 5.389-12.8 8.082-24.884 8.082H91.981v-54.774h18.765c11.262 0 19.23 2.448 23.902 7.346z" fill="#3d3d3d"/></svg>